{"glyphs":{"0":{"ha":768,"x_min":0,"x_max":0,"o":"m 391 -9 b 50 479 120 -9 50 270 b 382 969 50 691 118 969 b 722 477 621 969 722 722 b 391 -9 722 235 623 -9 m 390 54 b 653 478 579 54 653 267 b 382 905 653 692 578 905 b 115 479 172 905 115 672 b 390 54 115 288 172 54 "},"1":{"ha":768,"x_min":0,"x_max":0,"o":"m 486 958 l 486 0 l 420 0 l 420 749 l 174 749 l 174 802 l 349 802 b 422 867 397 802 422 821 l 422 958 "},"2":{"ha":768,"x_min":0,"x_max":0,"o":"m 52 68 b 597 692 299 224 597 425 b 382 907 597 823 519 907 b 150 645 228 907 151 801 l 85 648 b 382 967 85 837 193 967 b 663 691 552 967 663 865 b 146 64 663 422 382 210 l 131 61 l 715 61 l 715 0 l 52 0 "},"3":{"ha":768,"x_min":0,"x_max":0,"o":"m 377 -9 b 49 279 186 -9 49 97 l 113 283 b 378 53 113 140 218 53 b 640 273 530 53 640 136 b 329 476 640 449 462 477 l 329 535 b 589 720 460 534 589 572 b 375 905 589 831 498 905 b 157 707 245 905 158 827 l 94 711 b 374 968 94 868 214 968 b 653 726 529 968 653 870 b 442 510 653 591 551 531 b 704 268 576 491 704 424 b 377 -9 704 96 564 -9 "},"4":{"ha":768,"x_min":0,"x_max":0,"o":"m 742 291 l 742 230 l 585 230 l 585 0 l 519 0 l 519 230 l 27 230 l 27 276 l 520 958 l 585 958 l 585 291 m 519 291 l 519 863 l 110 291 "},"5":{"ha":768,"x_min":0,"x_max":0,"o":"m 404 633 b 707 318 575 633 707 496 b 382 -9 707 137 564 -9 b 65 260 224 -9 100 101 l 127 277 b 382 52 155 146 248 52 b 639 319 529 52 639 172 b 395 572 639 463 539 572 b 167 448 307 572 222 528 l 96 469 l 181 958 l 660 958 l 660 897 l 234 897 l 171 530 b 404 633 240 600 319 633 "},"6":{"ha":768,"x_min":0,"x_max":0,"o":"m 427 607 b 702 302 579 591 702 460 b 386 -9 702 132 561 -9 b 69 301 211 -9 69 131 b 118 469 69 365 89 420 l 407 958 l 482 958 l 254 573 b 427 607 306 600 366 613 m 386 54 b 637 303 524 54 637 165 b 386 552 637 440 524 552 b 134 302 248 552 134 441 b 386 54 134 165 246 54 "},"7":{"ha":768,"x_min":0,"x_max":0,"o":"m 724 958 l 724 913 l 240 0 l 166 0 l 648 897 l 41 897 l 41 958 "},"8":{"ha":768,"x_min":0,"x_max":0,"o":"m 384 -9 b 73 266 229 -9 73 82 b 269 520 73 393 151 488 b 131 735 184 554 131 633 b 386 968 131 884 260 968 b 640 728 528 968 640 873 b 500 520 640 631 585 552 b 692 267 618 486 692 391 b 384 -9 692 81 540 -9 m 387 541 b 576 724 497 541 576 615 b 387 911 576 837 497 911 b 197 732 290 911 197 848 b 387 541 197 617 273 541 m 383 49 b 627 272 511 49 627 122 b 383 494 627 406 525 494 b 138 272 239 494 138 406 b 383 49 138 122 258 49 "},"9":{"ha":768,"x_min":0,"x_max":0,"o":"m 395 968 b 712 657 570 968 712 827 b 663 489 712 593 692 538 l 374 0 l 299 0 l 527 385 b 354 351 475 358 416 345 b 79 656 202 367 79 498 b 395 968 79 827 220 968 m 395 406 b 647 656 533 406 647 517 b 395 905 647 793 535 905 b 144 655 258 905 144 793 b 395 406 144 518 258 406 "},"A":{"ha":873,"x_min":0,"x_max":0,"o":"m 406 958 l 467 958 l 814 0 l 742 0 l 658 239 l 217 239 l 133 0 l 59 0 m 637 297 l 437 869 l 238 297 "},"Á":{"ha":873,"x_min":0,"x_max":0,"o":"m 549 1238 l 619 1238 l 454 1045 l 403 1045 m 406 958 l 467 958 l 814 0 l 742 0 l 658 239 l 217 239 l 133 0 l 59 0 m 637 297 l 437 869 l 238 297 "},"Ă":{"ha":873,"x_min":0,"x_max":0,"o":"m 435 1060 b 231 1238 300 1060 231 1123 l 279 1238 b 435 1101 279 1148 336 1101 b 591 1238 535 1101 591 1149 l 639 1238 b 435 1060 639 1121 568 1060 m 406 958 l 467 958 l 814 0 l 742 0 l 658 239 l 217 239 l 133 0 l 59 0 m 637 297 l 437 869 l 238 297 "},"Ắ":{"ha":873,"x_min":0,"x_max":0,"o":"m 549 1519 l 619 1519 l 454 1326 l 403 1326 m 435 1060 b 231 1238 300 1060 231 1123 l 279 1238 b 435 1101 279 1148 336 1101 b 591 1238 535 1101 591 1149 l 639 1238 b 435 1060 639 1121 568 1060 m 406 958 l 467 958 l 814 0 l 742 0 l 658 239 l 217 239 l 133 0 l 59 0 m 637 297 l 437 869 l 238 297 "},"Ằ":{"ha":873,"x_min":0,"x_max":0,"o":"m 249 1519 l 319 1519 l 462 1326 l 409 1326 m 435 1060 b 231 1238 300 1060 231 1123 l 279 1238 b 435 1101 279 1148 336 1101 b 591 1238 535 1101 591 1149 l 639 1238 b 435 1060 639 1121 568 1060 m 406 958 l 467 958 l 814 0 l 742 0 l 658 239 l 217 239 l 133 0 l 59 0 m 637 297 l 437 869 l 238 297 "},"Ẵ":{"ha":873,"x_min":0,"x_max":0,"o":"m 534 1349 b 340 1478 418 1349 424 1478 b 262 1363 292 1478 262 1435 l 222 1363 b 342 1520 222 1462 268 1521 b 534 1392 450 1521 448 1392 b 606 1514 576 1392 606 1440 l 648 1514 b 534 1349 648 1413 602 1349 m 435 1060 b 231 1238 300 1060 231 1123 l 279 1238 b 435 1101 279 1148 336 1101 b 591 1238 535 1101 591 1149 l 639 1238 b 435 1060 639 1121 568 1060 m 406 958 l 467 958 l 814 0 l 742 0 l 658 239 l 217 239 l 133 0 l 59 0 m 637 297 l 437 869 l 238 297 "},"Ǎ":{"ha":873,"x_min":0,"x_max":0,"o":"m 234 1238 l 292 1238 l 435 1092 l 579 1238 l 636 1238 l 435 1035 m 406 958 l 467 958 l 814 0 l 742 0 l 658 239 l 217 239 l 133 0 l 59 0 m 637 297 l 437 869 l 238 297 "},"Â":{"ha":873,"x_min":0,"x_max":0,"o":"m 435 1246 l 637 1038 l 579 1038 l 435 1187 l 292 1038 l 234 1038 m 406 958 l 467 958 l 814 0 l 742 0 l 658 239 l 217 239 l 133 0 l 59 0 m 637 297 l 437 869 l 238 297 "},"Ấ":{"ha":873,"x_min":0,"x_max":0,"o":"m 549 1518 l 619 1518 l 454 1325 l 403 1325 m 435 1246 l 637 1038 l 579 1038 l 435 1187 l 292 1038 l 234 1038 m 406 958 l 467 958 l 814 0 l 742 0 l 658 239 l 217 239 l 133 0 l 59 0 m 637 297 l 437 869 l 238 297 "},"Ầ":{"ha":873,"x_min":0,"x_max":0,"o":"m 249 1518 l 319 1518 l 462 1325 l 409 1325 m 435 1246 l 637 1038 l 579 1038 l 435 1187 l 292 1038 l 234 1038 m 406 958 l 467 958 l 814 0 l 742 0 l 658 239 l 217 239 l 133 0 l 59 0 m 637 297 l 437 869 l 238 297 "},"Ẫ":{"ha":873,"x_min":0,"x_max":0,"o":"m 534 1348 b 340 1477 418 1348 424 1478 b 262 1362 292 1478 262 1434 l 222 1362 b 342 1520 222 1461 268 1520 b 534 1392 450 1520 448 1392 b 606 1514 576 1392 606 1439 l 648 1514 b 534 1348 648 1413 602 1348 m 435 1246 l 637 1038 l 579 1038 l 435 1187 l 292 1038 l 234 1038 m 406 958 l 467 958 l 814 0 l 742 0 l 658 239 l 217 239 l 133 0 l 59 0 m 637 297 l 437 869 l 238 297 "},"Ä":{"ha":873,"x_min":0,"x_max":0,"o":"m 287 1238 l 342 1238 l 342 1104 l 287 1104 m 526 1238 l 582 1238 l 582 1104 l 526 1104 m 406 958 l 467 958 l 814 0 l 742 0 l 658 239 l 217 239 l 133 0 l 59 0 m 637 297 l 437 869 l 238 297 "},"À":{"ha":873,"x_min":0,"x_max":0,"o":"m 249 1238 l 319 1238 l 462 1045 l 409 1045 m 406 958 l 467 958 l 814 0 l 742 0 l 658 239 l 217 239 l 133 0 l 59 0 m 637 297 l 437 869 l 238 297 "},"Ā":{"ha":873,"x_min":0,"x_max":0,"o":"m 252 1165 l 621 1165 l 621 1124 l 252 1124 m 406 958 l 467 958 l 814 0 l 742 0 l 658 239 l 217 239 l 133 0 l 59 0 m 637 297 l 437 869 l 238 297 "},"Ą":{"ha":873,"x_min":0,"x_max":0,"o":"m 870 -231 b 726 -310 835 -283 790 -310 b 589 -185 642 -310 589 -263 b 749 0 589 -93 673 -23 l 742 0 l 658 239 l 217 239 l 133 0 l 59 0 l 406 958 l 467 958 l 814 0 b 631 -178 720 -26 631 -92 b 724 -267 631 -239 666 -267 b 835 -206 772 -267 806 -248 m 637 297 l 437 869 l 238 297 "},"Å":{"ha":873,"x_min":0,"x_max":0,"o":"m 434 1028 b 311 1152 365 1028 311 1084 b 434 1275 311 1220 366 1275 b 557 1152 501 1275 557 1220 b 434 1028 557 1083 503 1028 m 434 1067 b 519 1152 481 1067 519 1105 b 434 1236 519 1199 483 1236 b 350 1152 387 1236 350 1199 b 434 1067 350 1103 387 1067 m 406 958 l 467 958 l 814 0 l 742 0 l 658 239 l 217 239 l 133 0 l 59 0 m 637 297 l 437 869 l 238 297 "},"Ã":{"ha":873,"x_min":0,"x_max":0,"o":"m 534 1068 b 340 1197 418 1068 424 1198 b 262 1082 292 1198 262 1154 l 222 1082 b 342 1240 222 1181 268 1240 b 534 1112 450 1240 448 1112 b 606 1234 576 1112 606 1159 l 648 1234 b 534 1068 648 1133 602 1068 m 406 958 l 467 958 l 814 0 l 742 0 l 658 239 l 217 239 l 133 0 l 59 0 m 637 297 l 437 869 l 238 297 "},"Æ":{"ha":1300,"x_min":0,"x_max":0,"o":"m 405 958 l 1214 958 l 1214 899 l 681 899 l 681 511 l 1144 511 l 1144 453 l 681 453 l 681 61 l 1214 61 l 1214 0 l 614 0 l 614 239 l 216 239 l 133 0 l 59 0 m 614 292 l 614 901 l 449 901 l 237 292 "},"B":{"ha":862,"x_min":0,"x_max":0,"o":"m 161 958 l 438 958 b 718 715 604 958 718 882 b 581 505 718 615 659 534 b 764 261 693 482 764 389 b 461 0 764 91 646 0 l 161 0 m 471 527 b 656 713 574 527 656 597 b 439 897 656 835 579 897 l 229 897 l 229 527 m 462 64 b 699 268 618 64 699 133 b 497 468 699 390 624 468 l 229 468 l 229 64 "},"C":{"ha":992,"x_min":0,"x_max":0,"o":"m 526 -9 b 102 481 250 -9 102 190 b 534 968 102 773 250 968 b 914 714 723 968 847 884 l 851 689 b 533 904 800 838 696 904 b 168 484 292 904 168 743 b 526 55 168 242 274 55 b 853 272 686 55 790 125 l 916 247 b 526 -9 841 79 711 -9 "},"Ć":{"ha":992,"x_min":0,"x_max":0,"o":"m 614 1238 l 684 1238 l 519 1045 l 467 1045 m 526 -9 b 102 481 250 -9 102 190 b 534 968 102 773 250 968 b 914 714 723 968 847 884 l 851 689 b 533 904 800 838 696 904 b 168 484 292 904 168 743 b 526 55 168 242 274 55 b 853 272 686 55 790 125 l 916 247 b 526 -9 841 79 711 -9 "},"Č":{"ha":992,"x_min":0,"x_max":0,"o":"m 298 1238 l 356 1238 l 499 1092 l 644 1238 l 701 1238 l 499 1035 m 526 -9 b 102 481 250 -9 102 190 b 534 968 102 773 250 968 b 914 714 723 968 847 884 l 851 689 b 533 904 800 838 696 904 b 168 484 292 904 168 743 b 526 55 168 242 274 55 b 853 272 686 55 790 125 l 916 247 b 526 -9 841 79 711 -9 "},"Ç":{"ha":992,"x_min":0,"x_max":0,"o":"m 916 247 b 567 -8 846 91 730 4 l 514 -98 b 559 -102 530 -98 546 -100 b 686 -222 642 -116 686 -158 b 551 -349 686 -298 633 -349 b 420 -261 494 -349 441 -313 l 460 -244 b 552 -308 474 -282 511 -308 b 645 -224 610 -308 645 -277 b 519 -130 645 -172 600 -138 b 456 -128 500 -129 480 -128 l 524 -9 b 102 481 248 -8 102 191 b 534 968 102 773 250 968 b 914 714 723 968 847 884 l 851 689 b 533 904 800 838 696 904 b 168 484 292 904 168 743 b 526 55 168 242 274 55 b 853 272 686 55 790 125 l 916 247 "},"Ċ":{"ha":992,"x_min":0,"x_max":0,"o":"m 466 1238 l 533 1238 l 533 1104 l 466 1104 m 526 -9 b 102 481 250 -9 102 190 b 534 968 102 773 250 968 b 914 714 723 968 847 884 l 851 689 b 533 904 800 838 696 904 b 168 484 292 904 168 743 b 526 55 168 242 274 55 b 853 272 686 55 790 125 l 916 247 b 526 -9 841 79 711 -9 "},"D":{"ha":998,"x_min":0,"x_max":0,"o":"m 161 958 l 414 958 b 899 472 728 958 899 784 b 412 0 899 172 724 0 l 161 0 m 406 62 b 832 475 676 62 832 199 b 412 897 832 754 692 897 l 229 897 l 229 62 "},"Ǳ":{"ha":1878,"x_min":0,"x_max":0,"o":"m 414 958 b 899 472 728 958 899 784 b 412 0 899 172 724 0 l 161 0 l 161 958 l 414 958 m 1803 903 l 1141 61 l 1800 61 l 1800 0 l 1054 0 l 1054 55 l 1715 897 l 1086 897 l 1086 958 l 1803 958 m 406 62 b 832 475 676 62 832 199 b 412 897 832 754 692 897 l 229 897 l 229 62 l 406 62 "},"Ǆ":{"ha":1878,"x_min":0,"x_max":0,"o":"m 1432 1035 l 1231 1238 l 1289 1238 l 1432 1092 l 1576 1238 l 1633 1238 m 414 958 b 899 472 728 958 899 784 b 412 0 899 172 724 0 l 161 0 l 161 958 l 414 958 m 1803 903 l 1141 61 l 1800 61 l 1800 0 l 1054 0 l 1054 55 l 1715 897 l 1086 897 l 1086 958 l 1803 958 m 406 62 b 832 475 676 62 832 199 b 412 897 832 754 692 897 l 229 897 l 229 62 l 406 62 "},"Ð":{"ha":998,"x_min":0,"x_max":0,"o":"m 414 958 b 899 472 728 958 899 784 b 412 0 899 172 724 0 l 161 0 l 161 456 l 58 456 l 58 503 l 161 503 l 161 958 l 414 958 m 406 62 b 832 475 676 62 832 199 b 412 897 832 754 692 897 l 229 897 l 229 503 l 488 503 l 488 456 l 229 456 l 229 62 l 406 62 "},"Ď":{"ha":998,"x_min":0,"x_max":0,"o":"m 310 1238 l 368 1238 l 511 1092 l 655 1238 l 712 1238 l 511 1035 m 161 958 l 414 958 b 899 472 728 958 899 784 b 412 0 899 172 724 0 l 161 0 m 406 62 b 832 475 676 62 832 199 b 412 897 832 754 692 897 l 229 897 l 229 62 "},"Đ":{"ha":998,"x_min":0,"x_max":0,"o":"m 414 958 b 899 472 728 958 899 784 b 412 0 899 172 724 0 l 161 0 l 161 456 l 58 456 l 58 503 l 161 503 l 161 958 l 414 958 m 406 62 b 832 475 676 62 832 199 b 412 897 832 754 692 897 l 229 897 l 229 503 l 488 503 l 488 456 l 229 456 l 229 62 l 406 62 "},"ǲ":{"ha":1658,"x_min":0,"x_max":0,"o":"m 414 958 b 899 472 728 958 899 784 b 412 0 899 172 724 0 l 161 0 l 161 958 l 414 958 m 406 62 b 832 475 676 62 832 199 b 412 897 832 754 692 897 l 229 897 l 229 62 l 406 62 m 1601 621 l 1132 56 l 1597 56 l 1597 0 l 1048 0 l 1048 52 l 1525 623 l 1073 623 l 1073 677 l 1601 677 "},"ǅ":{"ha":1658,"x_min":0,"x_max":0,"o":"m 414 958 b 899 472 728 958 899 784 b 412 0 899 172 724 0 l 161 0 l 161 958 l 414 958 m 1324 755 l 1123 958 l 1181 958 l 1324 812 l 1468 958 l 1525 958 m 406 62 b 832 475 676 62 832 199 b 412 897 832 754 692 897 l 229 897 l 229 62 l 406 62 m 1601 621 l 1132 56 l 1597 56 l 1597 0 l 1048 0 l 1048 52 l 1525 623 l 1073 623 l 1073 677 l 1601 677 "},"E":{"ha":870,"x_min":0,"x_max":0,"o":"m 161 958 l 784 958 l 784 897 l 229 897 l 229 513 l 724 513 l 724 451 l 229 451 l 229 64 l 784 64 l 784 0 l 161 0 "},"É":{"ha":870,"x_min":0,"x_max":0,"o":"m 587 1238 l 657 1238 l 492 1045 l 441 1045 m 161 958 l 784 958 l 784 897 l 229 897 l 229 513 l 724 513 l 724 451 l 229 451 l 229 64 l 784 64 l 784 0 l 161 0 "},"Ě":{"ha":870,"x_min":0,"x_max":0,"o":"m 272 1238 l 330 1238 l 473 1092 l 617 1238 l 674 1238 l 473 1035 m 161 958 l 784 958 l 784 897 l 229 897 l 229 513 l 724 513 l 724 451 l 229 451 l 229 64 l 784 64 l 784 0 l 161 0 "},"Ê":{"ha":870,"x_min":0,"x_max":0,"o":"m 473 1246 l 675 1038 l 617 1038 l 473 1187 l 330 1038 l 272 1038 m 161 958 l 784 958 l 784 897 l 229 897 l 229 513 l 724 513 l 724 451 l 229 451 l 229 64 l 784 64 l 784 0 l 161 0 "},"Ế":{"ha":870,"x_min":0,"x_max":0,"o":"m 587 1518 l 657 1518 l 492 1325 l 441 1325 m 473 1246 l 675 1038 l 617 1038 l 473 1187 l 330 1038 l 272 1038 m 161 958 l 784 958 l 784 897 l 229 897 l 229 513 l 724 513 l 724 451 l 229 451 l 229 64 l 784 64 l 784 0 l 161 0 "},"Ề":{"ha":870,"x_min":0,"x_max":0,"o":"m 287 1518 l 357 1518 l 500 1325 l 447 1325 m 473 1246 l 675 1038 l 617 1038 l 473 1187 l 330 1038 l 272 1038 m 161 958 l 784 958 l 784 897 l 229 897 l 229 513 l 724 513 l 724 451 l 229 451 l 229 64 l 784 64 l 784 0 l 161 0 "},"Ễ":{"ha":870,"x_min":0,"x_max":0,"o":"m 572 1348 b 378 1477 456 1348 462 1478 b 300 1362 330 1478 300 1434 l 260 1362 b 380 1520 260 1461 306 1520 b 572 1392 488 1520 486 1392 b 644 1514 614 1392 644 1439 l 686 1514 b 572 1348 686 1413 640 1348 m 473 1246 l 675 1038 l 617 1038 l 473 1187 l 330 1038 l 272 1038 m 161 958 l 784 958 l 784 897 l 229 897 l 229 513 l 724 513 l 724 451 l 229 451 l 229 64 l 784 64 l 784 0 l 161 0 "},"Ë":{"ha":870,"x_min":0,"x_max":0,"o":"m 325 1238 l 380 1238 l 380 1104 l 325 1104 m 564 1238 l 620 1238 l 620 1104 l 564 1104 m 161 958 l 784 958 l 784 897 l 229 897 l 229 513 l 724 513 l 724 451 l 229 451 l 229 64 l 784 64 l 784 0 l 161 0 "},"Ė":{"ha":870,"x_min":0,"x_max":0,"o":"m 439 1238 l 507 1238 l 507 1104 l 439 1104 m 161 958 l 784 958 l 784 897 l 229 897 l 229 513 l 724 513 l 724 451 l 229 451 l 229 64 l 784 64 l 784 0 l 161 0 "},"È":{"ha":870,"x_min":0,"x_max":0,"o":"m 287 1238 l 357 1238 l 500 1045 l 447 1045 m 161 958 l 784 958 l 784 897 l 229 897 l 229 513 l 724 513 l 724 451 l 229 451 l 229 64 l 784 64 l 784 0 l 161 0 "},"Ē":{"ha":870,"x_min":0,"x_max":0,"o":"m 290 1165 l 659 1165 l 659 1124 l 290 1124 m 161 958 l 784 958 l 784 897 l 229 897 l 229 513 l 724 513 l 724 451 l 229 451 l 229 64 l 784 64 l 784 0 l 161 0 "},"Ę":{"ha":870,"x_min":0,"x_max":0,"o":"m 840 -231 b 696 -310 805 -283 760 -310 b 559 -185 612 -310 559 -263 b 719 0 559 -93 644 -23 l 161 0 l 161 958 l 784 958 l 784 897 l 229 897 l 229 513 l 724 513 l 724 451 l 229 451 l 229 64 l 784 64 l 784 0 b 601 -178 690 -26 601 -92 b 694 -267 601 -239 636 -267 b 805 -206 743 -267 776 -248 "},"Ẽ":{"ha":870,"x_min":0,"x_max":0,"o":"m 572 1068 b 378 1197 456 1068 462 1198 b 300 1082 330 1198 300 1154 l 260 1082 b 380 1240 260 1181 306 1240 b 572 1112 488 1240 486 1112 b 644 1234 614 1112 644 1159 l 686 1234 b 572 1068 686 1133 640 1068 m 161 958 l 784 958 l 784 897 l 229 897 l 229 513 l 724 513 l 724 451 l 229 451 l 229 64 l 784 64 l 784 0 l 161 0 "},"F":{"ha":860,"x_min":0,"x_max":0,"o":"m 161 958 l 798 958 l 798 897 l 229 897 l 229 513 l 728 513 l 728 451 l 229 451 l 229 0 l 161 0 "},"G":{"ha":1047,"x_min":0,"x_max":0,"o":"m 526 -9 b 102 481 250 -9 102 190 b 534 968 102 773 250 968 b 914 714 723 968 846 884 l 854 689 b 533 909 799 840 695 909 b 168 484 292 909 168 743 b 526 52 168 242 274 52 b 854 294 696 52 808 134 l 855 430 l 615 430 l 615 486 l 921 486 l 921 0 l 866 0 l 861 184 b 526 -9 795 60 684 -9 "},"Ğ":{"ha":1047,"x_min":0,"x_max":0,"o":"m 530 1060 b 325 1238 394 1060 325 1123 l 373 1238 b 530 1101 373 1148 431 1101 b 685 1238 629 1101 685 1149 l 733 1238 b 530 1060 733 1121 662 1060 m 526 -9 b 102 481 250 -9 102 190 b 534 968 102 773 250 968 b 914 714 723 968 846 884 l 854 689 b 533 909 799 840 695 909 b 168 484 292 909 168 743 b 526 52 168 242 274 52 b 854 294 696 52 808 134 l 855 430 l 615 430 l 615 486 l 921 486 l 921 0 l 866 0 l 861 184 b 526 -9 795 60 684 -9 "},"Ģ":{"ha":1047,"x_min":0,"x_max":0,"o":"m 526 -9 b 102 481 250 -9 102 190 b 534 968 102 773 250 968 b 914 714 723 968 846 884 l 854 689 b 533 909 799 840 695 909 b 168 484 292 909 168 743 b 526 52 168 242 274 52 b 854 294 696 52 808 134 l 855 430 l 615 430 l 615 486 l 921 486 l 921 0 l 866 0 l 861 184 b 526 -9 795 60 684 -9 m 512 -78 l 581 -78 l 422 -301 l 378 -301 "},"Ġ":{"ha":1047,"x_min":0,"x_max":0,"o":"m 496 1238 l 563 1238 l 563 1104 l 496 1104 m 526 -9 b 102 481 250 -9 102 190 b 534 968 102 773 250 968 b 914 714 723 968 846 884 l 854 689 b 533 909 799 840 695 909 b 168 484 292 909 168 743 b 526 52 168 242 274 52 b 854 294 696 52 808 134 l 855 430 l 615 430 l 615 486 l 921 486 l 921 0 l 866 0 l 861 184 b 526 -9 795 60 684 -9 "},"H":{"ha":987,"x_min":0,"x_max":0,"o":"m 161 958 l 229 958 l 229 514 l 759 514 l 759 958 l 825 958 l 825 0 l 759 0 l 759 452 l 229 452 l 229 0 l 161 0 "},"Ħ":{"ha":987,"x_min":0,"x_max":0,"o":"m 925 736 l 825 736 l 825 0 l 759 0 l 759 452 l 229 452 l 229 0 l 161 0 l 161 736 l 63 736 l 63 777 l 161 777 l 161 958 l 229 958 l 229 777 l 759 777 l 759 958 l 825 958 l 825 777 l 925 777 m 759 736 l 229 736 l 229 514 l 759 514 "},"I":{"ha":390,"x_min":0,"x_max":0,"o":"m 161 958 l 229 958 l 229 0 l 161 0 "},"Ĳ":{"ha":1192,"x_min":0,"x_max":0,"o":"m 161 958 l 229 958 l 229 0 l 161 0 m 754 -9 b 454 273 578 -9 467 107 l 520 280 b 754 54 530 144 614 54 b 981 349 912 54 981 154 l 981 897 l 582 897 l 582 958 l 1048 958 l 1048 351 b 754 -9 1048 124 956 -9 "},"Í":{"ha":390,"x_min":0,"x_max":0,"o":"m 308 1238 l 378 1238 l 213 1045 l 161 1045 m 161 958 l 229 958 l 229 0 l 161 0 "},"Ǐ":{"ha":390,"x_min":0,"x_max":0,"o":"m -7 1238 l 50 1238 l 193 1092 l 338 1238 l 395 1238 l 193 1035 m 161 958 l 229 958 l 229 0 l 161 0 "},"Î":{"ha":390,"x_min":0,"x_max":0,"o":"m 194 1246 l 395 1038 l 338 1038 l 194 1187 l 50 1038 l -7 1038 m 161 958 l 229 958 l 229 0 l 161 0 "},"Ï":{"ha":390,"x_min":0,"x_max":0,"o":"m 45 1238 l 101 1238 l 101 1104 l 45 1104 m 285 1238 l 340 1238 l 340 1104 l 285 1104 m 161 958 l 229 958 l 229 0 l 161 0 "},"İ":{"ha":390,"x_min":0,"x_max":0,"o":"m 160 1238 l 227 1238 l 227 1104 l 160 1104 m 161 958 l 229 958 l 229 0 l 161 0 "},"Ì":{"ha":390,"x_min":0,"x_max":0,"o":"m 7 1238 l 77 1238 l 220 1045 l 168 1045 m 161 958 l 229 958 l 229 0 l 161 0 "},"Ī":{"ha":390,"x_min":0,"x_max":0,"o":"m 10 1165 l 379 1165 l 379 1124 l 10 1124 m 161 958 l 229 958 l 229 0 l 161 0 "},"Į":{"ha":390,"x_min":0,"x_max":0,"o":"m 285 -231 b 140 -310 250 -283 205 -310 b 3 -185 56 -310 3 -263 b 163 0 3 -93 88 -23 l 161 0 l 161 958 l 229 958 l 229 0 b 45 -178 135 -26 45 -92 b 139 -267 45 -239 81 -267 b 250 -206 187 -267 220 -248 "},"Ĩ":{"ha":390,"x_min":0,"x_max":0,"o":"m 292 1068 b 99 1197 177 1068 182 1198 b 21 1082 51 1198 21 1154 l -20 1082 b 101 1240 -20 1181 26 1240 b 292 1112 209 1240 206 1112 b 365 1234 334 1112 365 1159 l 407 1234 b 292 1068 407 1133 361 1068 m 161 958 l 229 958 l 229 0 l 161 0 "},"J":{"ha":802,"x_min":0,"x_max":0,"o":"m 364 -9 b 64 273 189 -9 77 107 l 130 280 b 364 54 140 144 224 54 b 591 349 522 54 591 154 l 591 897 l 192 897 l 192 958 l 658 958 l 658 351 b 364 -9 658 124 566 -9 "},"K":{"ha":975,"x_min":0,"x_max":0,"o":"m 161 958 l 229 958 l 229 357 l 803 958 l 893 958 l 532 586 l 917 0 l 834 0 l 486 541 l 229 275 l 229 0 l 161 0 "},"Ķ":{"ha":975,"x_min":0,"x_max":0,"o":"m 161 958 l 229 958 l 229 357 l 803 958 l 893 958 l 532 586 l 917 0 l 834 0 l 486 541 l 229 275 l 229 0 l 161 0 m 447 -78 l 516 -78 l 357 -301 l 313 -301 "},"L":{"ha":730,"x_min":0,"x_max":0,"o":"m 161 958 l 229 958 l 229 64 l 676 64 l 676 0 l 161 0 "},"Ǉ":{"ha":1558,"x_min":0,"x_max":0,"o":"m 161 958 l 229 958 l 229 64 l 676 64 l 676 0 l 161 0 m 1121 -9 b 821 273 945 -9 833 107 l 887 280 b 1121 54 897 144 981 54 b 1348 349 1279 54 1348 154 l 1348 897 l 949 897 l 949 958 l 1415 958 l 1415 351 b 1121 -9 1415 124 1322 -9 "},"Ĺ":{"ha":730,"x_min":0,"x_max":0,"o":"m 332 1238 l 402 1238 l 237 1045 l 186 1045 m 161 958 l 229 958 l 229 64 l 676 64 l 676 0 l 161 0 "},"Ľ":{"ha":1157,"x_min":0,"x_max":0,"o":"m 161 958 l 229 958 l 229 64 l 676 64 l 676 0 l 161 0 m 956 958 l 1023 958 l 918 682 l 875 682 "},"Ļ":{"ha":730,"x_min":0,"x_max":0,"o":"m 161 958 l 229 958 l 229 64 l 676 64 l 676 0 l 161 0 m 389 -78 l 458 -78 l 300 -301 l 255 -301 "},"ǈ":{"ha":1058,"x_min":0,"x_max":0,"o":"m 161 958 l 229 958 l 229 64 l 676 64 l 676 0 l 161 0 m 862 958 l 929 958 l 929 824 l 862 824 m 755 -292 b 648 -271 724 -292 677 -282 l 665 -214 b 749 -233 694 -226 728 -233 b 863 -94 827 -233 863 -189 l 863 677 l 928 677 l 928 -90 b 755 -292 928 -218 873 -292 "},"Ł":{"ha":730,"x_min":0,"x_max":0,"o":"m 676 64 l 676 0 l 161 0 l 161 264 l 73 163 l 73 239 l 161 340 l 161 958 l 229 958 l 229 416 l 488 711 l 488 636 l 229 341 l 229 64 "},"M":{"ha":1200,"x_min":0,"x_max":0,"o":"m 1038 958 l 1038 0 l 974 0 l 974 874 l 633 77 l 567 77 l 226 876 l 226 0 l 161 0 l 161 958 l 256 958 l 600 151 l 945 958 "},"N":{"ha":963,"x_min":0,"x_max":0,"o":"m 802 958 l 802 0 l 727 0 l 226 857 l 226 0 l 161 0 l 161 958 l 235 958 l 737 102 l 737 958 "},"Ǌ":{"ha":1765,"x_min":0,"x_max":0,"o":"m 737 958 l 802 958 l 802 0 l 727 0 l 226 857 l 226 0 l 161 0 l 161 958 l 235 958 l 737 102 m 1621 958 l 1621 351 b 1327 -9 1621 124 1529 -9 b 1027 273 1152 -9 1040 107 l 1093 280 b 1327 54 1103 144 1187 54 b 1554 349 1485 54 1554 154 l 1554 897 l 1155 897 l 1155 958 "},"Ń":{"ha":963,"x_min":0,"x_max":0,"o":"m 500 1045 l 448 1045 l 595 1238 l 665 1238 m 802 958 l 802 0 l 727 0 l 226 857 l 226 0 l 161 0 l 161 958 l 235 958 l 737 102 l 737 958 "},"Ň":{"ha":963,"x_min":0,"x_max":0,"o":"m 480 1035 l 279 1238 l 337 1238 l 480 1092 l 625 1238 l 682 1238 m 802 958 l 802 0 l 727 0 l 226 857 l 226 0 l 161 0 l 161 958 l 235 958 l 737 102 l 737 958 "},"Ņ":{"ha":963,"x_min":0,"x_max":0,"o":"m 802 958 l 802 0 l 727 0 l 226 857 l 226 0 l 161 0 l 161 958 l 235 958 l 737 102 l 737 958 m 451 -78 l 520 -78 l 361 -301 l 317 -301 "},"Ŋ":{"ha":964,"x_min":0,"x_max":0,"o":"m 801 958 l 801 -26 b 620 -228 801 -142 751 -228 b 520 -211 593 -228 553 -221 l 524 -165 b 605 -181 551 -175 585 -181 b 742 -54 701 -181 742 -123 b 732 -11 742 -33 737 -20 l 226 859 l 226 0 l 161 0 l 161 958 l 235 958 l 737 100 l 737 958 "},"ǋ":{"ha":1288,"x_min":0,"x_max":0,"o":"m 737 958 l 802 958 l 802 0 l 727 0 l 226 857 l 226 0 l 161 0 l 161 958 l 235 958 l 737 102 m 1159 958 l 1159 824 l 1092 824 l 1092 958 m 1093 677 l 1158 677 l 1158 -90 b 985 -292 1158 -218 1103 -292 b 878 -271 954 -292 907 -282 l 895 -214 b 979 -233 924 -226 958 -233 b 1093 -94 1057 -233 1093 -189 "},"Ñ":{"ha":963,"x_min":0,"x_max":0,"o":"m 386 1197 b 308 1082 338 1198 308 1154 l 267 1082 b 388 1240 267 1181 313 1240 b 579 1112 496 1240 493 1112 b 652 1234 621 1112 652 1159 l 694 1234 b 579 1068 694 1133 648 1068 b 386 1197 464 1068 469 1198 m 802 958 l 802 0 l 727 0 l 226 857 l 226 0 l 161 0 l 161 958 l 235 958 l 737 102 l 737 958 "},"O":{"ha":1064,"x_min":0,"x_max":0,"o":"m 531 -9 b 100 479 239 -9 100 218 b 531 968 100 741 239 968 b 964 479 825 968 964 741 b 531 -9 964 218 825 -9 m 531 51 b 894 479 783 51 894 247 b 531 907 894 711 783 907 b 170 479 281 907 170 711 b 531 51 170 247 281 51 "},"Ó":{"ha":1064,"x_min":0,"x_max":0,"o":"m 645 1238 l 715 1238 l 550 1045 l 498 1045 m 531 -9 b 100 479 239 -9 100 218 b 531 968 100 741 239 968 b 964 479 825 968 964 741 b 531 -9 964 218 825 -9 m 531 51 b 894 479 783 51 894 247 b 531 907 894 711 783 907 b 170 479 281 907 170 711 b 531 51 170 247 281 51 "},"Ǒ":{"ha":1064,"x_min":0,"x_max":0,"o":"m 330 1238 l 387 1238 l 530 1092 l 675 1238 l 732 1238 l 530 1035 m 531 -9 b 100 479 239 -9 100 218 b 531 968 100 741 239 968 b 964 479 825 968 964 741 b 531 -9 964 218 825 -9 m 531 51 b 894 479 783 51 894 247 b 531 907 894 711 783 907 b 170 479 281 907 170 711 b 531 51 170 247 281 51 "},"Ô":{"ha":1064,"x_min":0,"x_max":0,"o":"m 531 1246 l 732 1038 l 675 1038 l 531 1187 l 387 1038 l 330 1038 m 531 -9 b 100 479 239 -9 100 218 b 531 968 100 741 239 968 b 964 479 825 968 964 741 b 531 -9 964 218 825 -9 m 531 51 b 894 479 783 51 894 247 b 531 907 894 711 783 907 b 170 479 281 907 170 711 b 531 51 170 247 281 51 "},"Ố":{"ha":1064,"x_min":0,"x_max":0,"o":"m 645 1518 l 715 1518 l 550 1325 l 498 1325 m 531 1246 l 732 1038 l 675 1038 l 531 1187 l 387 1038 l 330 1038 m 531 -9 b 100 479 239 -9 100 218 b 531 968 100 741 239 968 b 964 479 825 968 964 741 b 531 -9 964 218 825 -9 m 531 51 b 894 479 783 51 894 247 b 531 907 894 711 783 907 b 170 479 281 907 170 711 b 531 51 170 247 281 51 "},"Ồ":{"ha":1064,"x_min":0,"x_max":0,"o":"m 345 1518 l 414 1518 l 557 1325 l 505 1325 m 531 1246 l 732 1038 l 675 1038 l 531 1187 l 387 1038 l 330 1038 m 531 -9 b 100 479 239 -9 100 218 b 531 968 100 741 239 968 b 964 479 825 968 964 741 b 531 -9 964 218 825 -9 m 531 51 b 894 479 783 51 894 247 b 531 907 894 711 783 907 b 170 479 281 907 170 711 b 531 51 170 247 281 51 "},"Ỗ":{"ha":1064,"x_min":0,"x_max":0,"o":"m 629 1348 b 436 1477 514 1348 519 1478 b 358 1362 388 1478 358 1434 l 317 1362 b 438 1520 317 1461 363 1520 b 629 1392 546 1520 543 1392 b 702 1514 671 1392 702 1439 l 744 1514 b 629 1348 744 1413 698 1348 m 531 1246 l 732 1038 l 675 1038 l 531 1187 l 387 1038 l 330 1038 m 531 -9 b 100 479 239 -9 100 218 b 531 968 100 741 239 968 b 964 479 825 968 964 741 b 531 -9 964 218 825 -9 m 531 51 b 894 479 783 51 894 247 b 531 907 894 711 783 907 b 170 479 281 907 170 711 b 531 51 170 247 281 51 "},"Ö":{"ha":1064,"x_min":0,"x_max":0,"o":"m 382 1238 l 438 1238 l 438 1104 l 382 1104 m 622 1238 l 677 1238 l 677 1104 l 622 1104 m 531 -9 b 100 479 239 -9 100 218 b 531 968 100 741 239 968 b 964 479 825 968 964 741 b 531 -9 964 218 825 -9 m 531 51 b 894 479 783 51 894 247 b 531 907 894 711 783 907 b 170 479 281 907 170 711 b 531 51 170 247 281 51 "},"Ò":{"ha":1064,"x_min":0,"x_max":0,"o":"m 345 1238 l 414 1238 l 557 1045 l 505 1045 m 531 -9 b 100 479 239 -9 100 218 b 531 968 100 741 239 968 b 964 479 825 968 964 741 b 531 -9 964 218 825 -9 m 531 51 b 894 479 783 51 894 247 b 531 907 894 711 783 907 b 170 479 281 907 170 711 b 531 51 170 247 281 51 "},"Ő":{"ha":1064,"x_min":0,"x_max":0,"o":"m 532 1238 l 593 1238 l 437 1036 l 386 1036 m 753 1238 l 823 1238 l 659 1036 l 607 1036 m 531 -9 b 100 479 239 -9 100 218 b 531 968 100 741 239 968 b 964 479 825 968 964 741 b 531 -9 964 218 825 -9 m 531 51 b 894 479 783 51 894 247 b 531 907 894 711 783 907 b 170 479 281 907 170 711 b 531 51 170 247 281 51 "},"Ō":{"ha":1064,"x_min":0,"x_max":0,"o":"m 347 1165 l 716 1165 l 716 1124 l 347 1124 m 531 -9 b 100 479 239 -9 100 218 b 531 968 100 741 239 968 b 964 479 825 968 964 741 b 531 -9 964 218 825 -9 m 531 51 b 894 479 783 51 894 247 b 531 907 894 711 783 907 b 170 479 281 907 170 711 b 531 51 170 247 281 51 "},"Ø":{"ha":1064,"x_min":0,"x_max":0,"o":"m 805 876 b 964 479 912 786 964 639 b 531 -9 964 218 825 -9 b 292 58 435 -9 355 15 l 256 0 l 204 0 l 257 84 b 100 479 151 174 100 321 b 531 968 100 741 239 968 b 770 902 627 968 707 943 l 805 958 l 857 958 l 805 876 m 170 479 b 292 139 170 342 209 218 l 736 848 b 531 907 682 886 614 907 b 170 479 281 907 170 711 m 531 51 b 894 479 783 51 894 247 b 770 821 894 617 854 742 l 326 111 b 531 51 379 73 447 51 "},"Ǿ":{"ha":1064,"x_min":0,"x_max":0,"o":"m 550 1045 l 498 1045 l 645 1238 l 715 1238 m 805 876 b 964 479 912 786 964 639 b 531 -9 964 218 825 -9 b 292 58 435 -9 355 15 l 256 0 l 204 0 l 257 84 b 100 479 151 174 100 321 b 531 968 100 741 239 968 b 770 902 627 968 707 943 l 805 958 l 857 958 l 805 876 m 170 479 b 292 139 170 342 209 218 l 736 848 b 531 907 682 886 614 907 b 170 479 281 907 170 711 m 531 51 b 894 479 783 51 894 247 b 770 821 894 617 854 742 l 326 111 b 531 51 379 73 447 51 "},"Õ":{"ha":1064,"x_min":0,"x_max":0,"o":"m 629 1068 b 436 1197 514 1068 519 1198 b 358 1082 388 1198 358 1154 l 317 1082 b 438 1240 317 1181 363 1240 b 629 1112 546 1240 543 1112 b 702 1234 671 1112 702 1159 l 744 1234 b 629 1068 744 1133 698 1068 m 531 -9 b 100 479 239 -9 100 218 b 531 968 100 741 239 968 b 964 479 825 968 964 741 b 531 -9 964 218 825 -9 m 531 51 b 894 479 783 51 894 247 b 531 907 894 711 783 907 b 170 479 281 907 170 711 b 531 51 170 247 281 51 "},"Œ":{"ha":1608,"x_min":0,"x_max":0,"o":"m 966 897 l 966 513 l 1461 513 l 1461 451 l 966 451 l 966 64 l 1521 64 l 1521 0 l 899 0 l 899 199 b 531 -9 831 75 710 -9 b 100 479 239 -9 100 218 b 531 968 100 741 239 968 b 899 760 710 968 831 884 l 899 958 l 1521 958 l 1521 897 m 531 51 b 894 479 783 51 894 247 b 531 907 894 711 783 907 b 170 479 281 907 170 711 b 531 51 170 247 281 51 "},"P":{"ha":804,"x_min":0,"x_max":0,"o":"m 161 958 l 412 958 b 729 691 605 958 729 859 b 412 427 729 522 608 427 l 228 427 l 228 0 l 161 0 m 412 490 b 663 691 577 490 663 562 b 412 895 663 819 574 895 l 228 895 l 228 490 "},"Þ":{"ha":801,"x_min":0,"x_max":0,"o":"m 161 958 l 223 958 l 223 818 l 422 818 b 724 555 614 818 724 718 b 410 288 724 381 604 288 l 223 288 l 223 0 l 161 0 m 410 345 b 663 553 575 345 663 419 b 410 764 663 686 572 764 l 223 764 l 223 345 "},"Q":{"ha":1082,"x_min":0,"x_max":0,"o":"m 802 85 b 530 -9 733 26 644 -9 b 99 479 237 -9 99 218 b 530 968 99 741 237 968 b 963 479 825 968 963 740 b 846 125 963 340 924 213 l 983 -9 l 939 -52 m 530 54 b 755 130 625 54 700 83 l 585 296 l 629 337 l 798 172 b 897 479 865 250 897 358 b 530 904 897 711 782 904 b 165 479 280 904 165 711 b 530 54 165 247 280 54 "},"R":{"ha":856,"x_min":0,"x_max":0,"o":"m 161 958 l 416 958 b 730 696 602 958 730 864 b 522 450 730 564 652 478 l 787 0 l 712 0 l 457 443 b 390 440 437 441 414 440 l 229 440 l 229 0 l 161 0 m 421 496 b 664 695 576 498 664 567 b 416 898 664 824 571 898 l 229 898 l 229 496 "},"Ŕ":{"ha":856,"x_min":0,"x_max":0,"o":"m 537 1238 l 607 1238 l 442 1045 l 391 1045 m 161 958 l 416 958 b 730 696 602 958 730 864 b 522 450 730 564 652 478 l 787 0 l 712 0 l 457 443 b 390 440 437 441 414 440 l 229 440 l 229 0 l 161 0 m 421 496 b 664 695 576 498 664 567 b 416 898 664 824 571 898 l 229 898 l 229 496 "},"Ř":{"ha":856,"x_min":0,"x_max":0,"o":"m 222 1238 l 279 1238 l 422 1092 l 567 1238 l 624 1238 l 422 1035 m 161 958 l 416 958 b 730 696 602 958 730 864 b 522 450 730 564 652 478 l 787 0 l 712 0 l 457 443 b 390 440 437 441 414 440 l 229 440 l 229 0 l 161 0 m 421 496 b 664 695 576 498 664 567 b 416 898 664 824 571 898 l 229 898 l 229 496 "},"Ŗ":{"ha":856,"x_min":0,"x_max":0,"o":"m 161 958 l 416 958 b 730 696 602 958 730 864 b 522 450 730 564 652 478 l 787 0 l 712 0 l 457 443 b 390 440 437 441 414 440 l 229 440 l 229 0 l 161 0 m 421 496 b 664 695 576 498 664 567 b 416 898 664 824 571 898 l 229 898 l 229 496 m 444 -78 l 513 -78 l 355 -301 l 310 -301 "},"S":{"ha":782,"x_min":0,"x_max":0,"o":"m 399 -8 b 76 249 235 -8 104 85 l 142 264 b 400 52 163 127 263 52 b 633 253 539 52 633 138 b 131 730 633 522 131 435 b 392 968 131 872 245 968 b 657 818 509 968 597 922 l 602 783 b 390 907 553 868 486 907 b 197 732 279 907 197 833 b 699 258 197 489 699 573 b 399 -8 699 100 570 -8 "},"Ś":{"ha":782,"x_min":0,"x_max":0,"o":"m 499 1238 l 569 1238 l 404 1045 l 353 1045 m 399 -8 b 76 249 235 -8 104 85 l 142 264 b 400 52 163 127 263 52 b 633 253 539 52 633 138 b 131 730 633 522 131 435 b 392 968 131 872 245 968 b 657 818 509 968 597 922 l 602 783 b 390 907 553 868 486 907 b 197 732 279 907 197 833 b 699 258 197 489 699 573 b 399 -8 699 100 570 -8 "},"Š":{"ha":782,"x_min":0,"x_max":0,"o":"m 184 1238 l 241 1238 l 385 1092 l 529 1238 l 586 1238 l 385 1035 m 399 -8 b 76 249 235 -8 104 85 l 142 264 b 400 52 163 127 263 52 b 633 253 539 52 633 138 b 131 730 633 522 131 435 b 392 968 131 872 245 968 b 657 818 509 968 597 922 l 602 783 b 390 907 553 868 486 907 b 197 732 279 907 197 833 b 699 258 197 489 699 573 b 399 -8 699 100 570 -8 "},"Ş":{"ha":782,"x_min":0,"x_max":0,"o":"m 699 258 b 403 -8 699 101 572 -7 l 350 -98 b 395 -102 366 -98 382 -100 b 522 -222 478 -116 522 -158 b 387 -349 522 -298 469 -349 b 256 -261 330 -349 277 -313 l 296 -244 b 388 -308 310 -282 347 -308 b 481 -224 446 -308 481 -277 b 355 -130 481 -172 436 -138 b 292 -128 336 -129 316 -128 l 361 -6 b 76 249 215 7 102 98 l 142 264 b 400 52 163 127 263 52 b 633 253 539 52 633 138 b 131 730 633 522 131 435 b 392 968 131 872 245 968 b 657 818 509 968 597 922 l 602 783 b 390 907 553 868 486 907 b 197 732 279 907 197 833 b 699 258 197 489 699 573 "},"Ș":{"ha":782,"x_min":0,"x_max":0,"o":"m 399 -8 b 76 249 235 -8 104 85 l 142 264 b 400 52 163 127 263 52 b 633 253 539 52 633 138 b 131 730 633 522 131 435 b 392 968 131 872 245 968 b 657 818 509 968 597 922 l 602 783 b 390 907 553 868 486 907 b 197 732 279 907 197 833 b 699 258 197 489 699 573 b 399 -8 699 100 570 -8 m 355 -78 l 425 -78 l 266 -301 l 221 -301 "},"T":{"ha":866,"x_min":0,"x_max":0,"o":"m 400 898 l 54 898 l 54 958 l 812 958 l 812 898 l 467 898 l 467 0 l 400 0 "},"Ŧ":{"ha":866,"x_min":0,"x_max":0,"o":"m 467 898 l 467 503 l 651 503 l 651 456 l 467 456 l 467 0 l 400 0 l 400 456 l 220 456 l 220 503 l 400 503 l 400 898 l 54 898 l 54 958 l 812 958 l 812 898 "},"Ť":{"ha":866,"x_min":0,"x_max":0,"o":"m 234 1238 l 292 1238 l 435 1092 l 579 1238 l 636 1238 l 435 1035 m 400 898 l 54 898 l 54 958 l 812 958 l 812 898 l 467 898 l 467 0 l 400 0 "},"Ţ":{"ha":866,"x_min":0,"x_max":0,"o":"m 400 898 l 54 898 l 54 958 l 812 958 l 812 898 l 467 898 l 467 0 l 400 0 m 437 -349 b 307 -261 380 -349 327 -313 l 347 -244 b 438 -308 360 -282 397 -308 b 531 -224 496 -308 531 -277 b 405 -130 531 -172 486 -138 b 342 -128 386 -129 366 -128 l 414 -1 l 457 -1 l 400 -98 b 446 -102 416 -98 432 -100 b 572 -222 528 -116 572 -158 b 437 -349 572 -298 519 -349 "},"Ț":{"ha":866,"x_min":0,"x_max":0,"o":"m 400 898 l 54 898 l 54 958 l 812 958 l 812 898 l 467 898 l 467 0 l 400 0 m 406 -78 l 475 -78 l 316 -301 l 271 -301 "},"U":{"ha":955,"x_min":0,"x_max":0,"o":"m 476 -9 b 142 355 254 -9 142 126 l 142 958 l 209 958 l 209 361 b 476 56 209 165 294 56 b 746 366 660 56 746 167 l 746 958 l 812 958 l 812 362 b 476 -9 812 127 699 -9 "},"Ú":{"ha":955,"x_min":0,"x_max":0,"o":"m 592 1238 l 662 1238 l 497 1045 l 446 1045 m 476 -9 b 142 355 254 -9 142 126 l 142 958 l 209 958 l 209 361 b 476 56 209 165 294 56 b 746 366 660 56 746 167 l 746 958 l 812 958 l 812 362 b 476 -9 812 127 699 -9 "},"Ǔ":{"ha":955,"x_min":0,"x_max":0,"o":"m 277 1238 l 334 1238 l 477 1092 l 622 1238 l 679 1238 l 477 1035 m 476 -9 b 142 355 254 -9 142 126 l 142 958 l 209 958 l 209 361 b 476 56 209 165 294 56 b 746 366 660 56 746 167 l 746 958 l 812 958 l 812 362 b 476 -9 812 127 699 -9 "},"Û":{"ha":955,"x_min":0,"x_max":0,"o":"m 478 1246 l 680 1038 l 622 1038 l 478 1187 l 334 1038 l 277 1038 m 476 -9 b 142 355 254 -9 142 126 l 142 958 l 209 958 l 209 361 b 476 56 209 165 294 56 b 746 366 660 56 746 167 l 746 958 l 812 958 l 812 362 b 476 -9 812 127 699 -9 "},"Ü":{"ha":955,"x_min":0,"x_max":0,"o":"m 330 1238 l 385 1238 l 385 1104 l 330 1104 m 569 1238 l 625 1238 l 625 1104 l 569 1104 m 476 -9 b 142 355 254 -9 142 126 l 142 958 l 209 958 l 209 361 b 476 56 209 165 294 56 b 746 366 660 56 746 167 l 746 958 l 812 958 l 812 362 b 476 -9 812 127 699 -9 "},"Ǘ":{"ha":955,"x_min":0,"x_max":0,"o":"m 592 1519 l 662 1519 l 497 1326 l 446 1326 m 330 1238 l 385 1238 l 385 1104 l 330 1104 m 569 1238 l 625 1238 l 625 1104 l 569 1104 m 476 -9 b 142 355 254 -9 142 126 l 142 958 l 209 958 l 209 361 b 476 56 209 165 294 56 b 746 366 660 56 746 167 l 746 958 l 812 958 l 812 362 b 476 -9 812 127 699 -9 "},"Ǚ":{"ha":955,"x_min":0,"x_max":0,"o":"m 277 1519 l 334 1519 l 477 1373 l 622 1519 l 679 1519 l 477 1316 m 330 1238 l 385 1238 l 385 1104 l 330 1104 m 569 1238 l 625 1238 l 625 1104 l 569 1104 m 476 -9 b 142 355 254 -9 142 126 l 142 958 l 209 958 l 209 361 b 476 56 209 165 294 56 b 746 366 660 56 746 167 l 746 958 l 812 958 l 812 362 b 476 -9 812 127 699 -9 "},"Ǜ":{"ha":955,"x_min":0,"x_max":0,"o":"m 292 1519 l 361 1519 l 505 1326 l 452 1326 m 330 1238 l 385 1238 l 385 1104 l 330 1104 m 569 1238 l 625 1238 l 625 1104 l 569 1104 m 476 -9 b 142 355 254 -9 142 126 l 142 958 l 209 958 l 209 361 b 476 56 209 165 294 56 b 746 366 660 56 746 167 l 746 958 l 812 958 l 812 362 b 476 -9 812 127 699 -9 "},"Ǖ":{"ha":955,"x_min":0,"x_max":0,"o":"m 294 1446 l 663 1446 l 663 1404 l 294 1404 m 330 1238 l 385 1238 l 385 1104 l 330 1104 m 569 1238 l 625 1238 l 625 1104 l 569 1104 m 476 -9 b 142 355 254 -9 142 126 l 142 958 l 209 958 l 209 361 b 476 56 209 165 294 56 b 746 366 660 56 746 167 l 746 958 l 812 958 l 812 362 b 476 -9 812 127 699 -9 "},"Ù":{"ha":955,"x_min":0,"x_max":0,"o":"m 292 1238 l 361 1238 l 505 1045 l 452 1045 m 476 -9 b 142 355 254 -9 142 126 l 142 958 l 209 958 l 209 361 b 476 56 209 165 294 56 b 746 366 660 56 746 167 l 746 958 l 812 958 l 812 362 b 476 -9 812 127 699 -9 "},"Ű":{"ha":955,"x_min":0,"x_max":0,"o":"m 479 1238 l 540 1238 l 385 1036 l 333 1036 m 701 1238 l 770 1238 l 606 1036 l 554 1036 m 476 -9 b 142 355 254 -9 142 126 l 142 958 l 209 958 l 209 361 b 476 56 209 165 294 56 b 746 366 660 56 746 167 l 746 958 l 812 958 l 812 362 b 476 -9 812 127 699 -9 "},"Ū":{"ha":955,"x_min":0,"x_max":0,"o":"m 294 1165 l 663 1165 l 663 1124 l 294 1124 m 476 -9 b 142 355 254 -9 142 126 l 142 958 l 209 958 l 209 361 b 476 56 209 165 294 56 b 746 366 660 56 746 167 l 746 958 l 812 958 l 812 362 b 476 -9 812 127 699 -9 "},"Ų":{"ha":955,"x_min":0,"x_max":0,"o":"m 812 958 l 812 362 b 570 0 812 163 731 35 b 450 -154 503 -33 450 -88 b 543 -243 450 -215 485 -243 b 654 -182 591 -243 625 -224 l 689 -207 b 545 -286 654 -259 609 -286 b 408 -161 460 -286 408 -239 b 500 -9 408 -97 449 -43 b 476 -9 492 -9 484 -9 b 142 355 254 -9 142 126 l 142 958 l 209 958 l 209 361 b 476 56 209 165 294 56 b 746 366 660 56 746 167 l 746 958 "},"Ů":{"ha":955,"x_min":0,"x_max":0,"o":"m 477 1028 b 353 1152 408 1028 353 1084 b 477 1275 353 1220 408 1275 b 600 1152 544 1275 600 1220 b 477 1028 600 1083 546 1028 m 477 1067 b 562 1152 524 1067 562 1105 b 477 1236 562 1199 526 1236 b 393 1152 429 1236 393 1199 b 477 1067 393 1103 429 1067 m 476 -9 b 142 355 254 -9 142 126 l 142 958 l 209 958 l 209 361 b 476 56 209 165 294 56 b 746 366 660 56 746 167 l 746 958 l 812 958 l 812 362 b 476 -9 812 127 699 -9 "},"Ũ":{"ha":955,"x_min":0,"x_max":0,"o":"m 576 1068 b 383 1197 461 1068 467 1198 b 305 1082 335 1198 305 1154 l 264 1082 b 385 1240 264 1181 311 1240 b 576 1112 493 1240 490 1112 b 649 1234 618 1112 649 1159 l 691 1234 b 576 1068 691 1133 645 1068 m 476 -9 b 142 355 254 -9 142 126 l 142 958 l 209 958 l 209 361 b 476 56 209 165 294 56 b 746 366 660 56 746 167 l 746 958 l 812 958 l 812 362 b 476 -9 812 127 699 -9 "},"V":{"ha":928,"x_min":0,"x_max":0,"o":"m 871 958 l 494 0 l 436 0 l 58 958 l 131 958 l 465 97 l 798 958 "},"W":{"ha":1337,"x_min":0,"x_max":0,"o":"m 66 958 l 136 958 l 378 93 l 640 908 l 696 908 l 959 93 l 1202 958 l 1272 958 l 999 0 l 928 0 l 669 804 l 409 0 l 338 0 "},"Ẃ":{"ha":1337,"x_min":0,"x_max":0,"o":"m 787 1225 l 857 1225 l 692 1031 l 640 1031 m 66 958 l 136 958 l 378 93 l 640 908 l 696 908 l 959 93 l 1202 958 l 1272 958 l 999 0 l 928 0 l 669 804 l 409 0 l 338 0 "},"Ŵ":{"ha":1337,"x_min":0,"x_max":0,"o":"m 673 1233 l 874 1025 l 817 1025 l 673 1173 l 529 1025 l 471 1025 m 66 958 l 136 958 l 378 93 l 640 908 l 696 908 l 959 93 l 1202 958 l 1272 958 l 999 0 l 928 0 l 669 804 l 409 0 l 338 0 "},"Ẅ":{"ha":1337,"x_min":0,"x_max":0,"o":"m 524 1225 l 580 1225 l 580 1090 l 524 1090 m 764 1225 l 819 1225 l 819 1090 l 764 1090 m 66 958 l 136 958 l 378 93 l 640 908 l 696 908 l 959 93 l 1202 958 l 1272 958 l 999 0 l 928 0 l 669 804 l 409 0 l 338 0 "},"Ẁ":{"ha":1337,"x_min":0,"x_max":0,"o":"m 486 1225 l 556 1225 l 699 1031 l 646 1031 m 66 958 l 136 958 l 378 93 l 640 908 l 696 908 l 959 93 l 1202 958 l 1272 958 l 999 0 l 928 0 l 669 804 l 409 0 l 338 0 "},"X":{"ha":895,"x_min":0,"x_max":0,"o":"m 402 485 l 71 958 l 151 958 l 447 529 l 744 958 l 823 958 l 492 485 l 831 0 l 752 0 l 447 438 l 142 0 l 63 0 "},"Y":{"ha":903,"x_min":0,"x_max":0,"o":"m 416 363 l 50 958 l 131 958 l 450 430 l 771 958 l 852 958 l 486 363 l 486 0 l 416 0 "},"Ý":{"ha":903,"x_min":0,"x_max":0,"o":"m 564 1239 l 634 1239 l 469 1046 l 418 1046 m 416 363 l 50 958 l 131 958 l 450 430 l 771 958 l 852 958 l 486 363 l 486 0 l 416 0 "},"Ŷ":{"ha":903,"x_min":0,"x_max":0,"o":"m 450 1247 l 652 1039 l 594 1039 l 450 1187 l 307 1039 l 249 1039 m 416 363 l 50 958 l 131 958 l 450 430 l 771 958 l 852 958 l 486 363 l 486 0 l 416 0 "},"Ÿ":{"ha":903,"x_min":0,"x_max":0,"o":"m 302 1239 l 357 1239 l 357 1105 l 302 1105 m 541 1239 l 597 1239 l 597 1105 l 541 1105 m 416 363 l 50 958 l 131 958 l 450 430 l 771 958 l 852 958 l 486 363 l 486 0 l 416 0 "},"Ỳ":{"ha":903,"x_min":0,"x_max":0,"o":"m 264 1239 l 334 1239 l 477 1046 l 424 1046 m 416 363 l 50 958 l 131 958 l 450 430 l 771 958 l 852 958 l 486 363 l 486 0 l 416 0 "},"Ỹ":{"ha":903,"x_min":0,"x_max":0,"o":"m 549 1069 b 355 1198 433 1069 439 1198 b 277 1083 307 1198 277 1155 l 237 1083 b 357 1240 237 1182 283 1241 b 549 1112 465 1241 463 1112 b 621 1234 591 1112 621 1160 l 663 1234 b 549 1069 663 1133 617 1069 m 416 363 l 50 958 l 131 958 l 450 430 l 771 958 l 852 958 l 486 363 l 486 0 l 416 0 "},"Z":{"ha":893,"x_min":0,"x_max":0,"o":"m 818 903 l 157 61 l 815 61 l 815 0 l 69 0 l 69 55 l 730 897 l 102 897 l 102 958 l 818 958 "},"Ź":{"ha":893,"x_min":0,"x_max":0,"o":"m 467 1045 l 415 1045 l 562 1238 l 631 1238 m 818 903 l 157 61 l 815 61 l 815 0 l 69 0 l 69 55 l 730 897 l 102 897 l 102 958 l 818 958 "},"Ž":{"ha":893,"x_min":0,"x_max":0,"o":"m 447 1035 l 246 1238 l 304 1238 l 447 1092 l 591 1238 l 648 1238 m 818 903 l 157 61 l 815 61 l 815 0 l 69 0 l 69 55 l 730 897 l 102 897 l 102 958 l 818 958 "},"Ż":{"ha":893,"x_min":0,"x_max":0,"o":"m 481 1104 l 414 1104 l 414 1238 l 481 1238 m 818 903 l 157 61 l 815 61 l 815 0 l 69 0 l 69 55 l 730 897 l 102 897 l 102 958 l 818 958 "},"a":{"ha":724,"x_min":0,"x_max":0,"o":"m 351 687 b 613 415 520 687 613 587 l 613 0 l 558 0 l 554 153 b 296 -9 500 45 405 -9 b 66 193 159 -9 66 66 b 355 386 66 327 172 386 l 553 386 l 553 404 b 351 629 553 555 492 629 b 142 514 256 629 195 590 l 93 551 b 351 687 159 642 235 687 m 307 47 b 553 239 429 47 511 119 l 553 336 l 358 336 b 132 191 205 336 132 285 b 307 47 132 103 197 47 "},"á":{"ha":724,"x_min":0,"x_max":0,"o":"m 372 765 l 320 765 l 467 958 l 536 958 m 351 687 b 613 415 520 687 613 587 l 613 0 l 558 0 l 554 153 b 296 -9 500 45 405 -9 b 66 193 159 -9 66 66 b 355 386 66 327 172 386 l 553 386 l 553 404 b 351 629 553 555 492 629 b 142 514 256 629 195 590 l 93 551 b 351 687 159 642 235 687 m 307 47 b 553 239 429 47 511 119 l 553 336 l 358 336 b 132 191 205 336 132 285 b 307 47 132 103 197 47 "},"ă":{"ha":724,"x_min":0,"x_max":0,"o":"m 353 780 b 148 958 217 780 148 843 l 196 958 b 353 821 196 868 254 821 b 508 958 452 821 508 869 l 556 958 b 353 780 556 841 485 780 m 351 687 b 613 415 520 687 613 587 l 613 0 l 558 0 l 554 153 b 296 -9 500 45 405 -9 b 66 193 159 -9 66 66 b 355 386 66 327 172 386 l 553 386 l 553 404 b 351 629 553 555 492 629 b 142 514 256 629 195 590 l 93 551 b 351 687 159 642 235 687 m 307 47 b 553 239 429 47 511 119 l 553 336 l 358 336 b 132 191 205 336 132 285 b 307 47 132 103 197 47 "},"ắ":{"ha":724,"x_min":0,"x_max":0,"o":"m 372 1046 l 320 1046 l 467 1239 l 536 1239 m 353 780 b 148 958 217 780 148 843 l 196 958 b 353 821 196 868 254 821 b 508 958 452 821 508 869 l 556 958 b 353 780 556 841 485 780 m 351 687 b 613 415 520 687 613 587 l 613 0 l 558 0 l 554 153 b 296 -9 500 45 405 -9 b 66 193 159 -9 66 66 b 355 386 66 327 172 386 l 553 386 l 553 404 b 351 629 553 555 492 629 b 142 514 256 629 195 590 l 93 551 b 351 687 159 642 235 687 m 307 47 b 553 239 429 47 511 119 l 553 336 l 358 336 b 132 191 205 336 132 285 b 307 47 132 103 197 47 "},"ằ":{"ha":724,"x_min":0,"x_max":0,"o":"m 326 1046 l 166 1239 l 236 1239 l 379 1046 m 353 780 b 148 958 217 780 148 843 l 196 958 b 353 821 196 868 254 821 b 508 958 452 821 508 869 l 556 958 b 353 780 556 841 485 780 m 351 687 b 613 415 520 687 613 587 l 613 0 l 558 0 l 554 153 b 296 -9 500 45 405 -9 b 66 193 159 -9 66 66 b 355 386 66 327 172 386 l 553 386 l 553 404 b 351 629 553 555 492 629 b 142 514 256 629 195 590 l 93 551 b 351 687 159 642 235 687 m 307 47 b 553 239 429 47 511 119 l 553 336 l 358 336 b 132 191 205 336 132 285 b 307 47 132 103 197 47 "},"ẵ":{"ha":724,"x_min":0,"x_max":0,"o":"m 258 1198 b 180 1083 210 1198 180 1155 l 139 1083 b 260 1240 139 1182 185 1241 b 451 1112 368 1241 365 1112 b 524 1234 493 1112 524 1160 l 566 1234 b 451 1069 566 1133 519 1069 b 258 1198 336 1069 341 1198 m 353 821 b 508 958 452 821 508 869 l 556 958 b 353 780 556 841 485 780 b 148 958 217 780 148 843 l 196 958 b 353 821 196 868 254 821 m 351 687 b 613 415 520 687 613 587 l 613 0 l 558 0 l 554 153 b 296 -9 500 45 405 -9 b 66 193 159 -9 66 66 b 355 386 66 327 172 386 l 553 386 l 553 404 b 351 629 553 555 492 629 b 142 514 256 629 195 590 l 93 551 b 351 687 159 642 235 687 m 307 47 b 553 239 429 47 511 119 l 553 336 l 358 336 b 132 191 205 336 132 285 b 307 47 132 103 197 47 "},"ǎ":{"ha":724,"x_min":0,"x_max":0,"o":"m 352 755 l 151 958 l 209 958 l 352 812 l 496 958 l 553 958 m 351 687 b 613 415 520 687 613 587 l 613 0 l 558 0 l 554 153 b 296 -9 500 45 405 -9 b 66 193 159 -9 66 66 b 355 386 66 327 172 386 l 553 386 l 553 404 b 351 629 553 555 492 629 b 142 514 256 629 195 590 l 93 551 b 351 687 159 642 235 687 m 307 47 b 553 239 429 47 511 119 l 553 336 l 358 336 b 132 191 205 336 132 285 b 307 47 132 103 197 47 "},"â":{"ha":724,"x_min":0,"x_max":0,"o":"m 209 758 l 151 758 l 353 966 l 554 758 l 496 758 l 353 907 m 351 687 b 613 415 520 687 613 587 l 613 0 l 558 0 l 554 153 b 296 -9 500 45 405 -9 b 66 193 159 -9 66 66 b 355 386 66 327 172 386 l 553 386 l 553 404 b 351 629 553 555 492 629 b 142 514 256 629 195 590 l 93 551 b 351 687 159 642 235 687 m 307 47 b 553 239 429 47 511 119 l 553 336 l 358 336 b 132 191 205 336 132 285 b 307 47 132 103 197 47 "},"ấ":{"ha":724,"x_min":0,"x_max":0,"o":"m 372 1045 l 320 1045 l 467 1238 l 536 1238 m 209 758 l 151 758 l 353 966 l 554 758 l 496 758 l 353 907 m 351 687 b 613 415 520 687 613 587 l 613 0 l 558 0 l 554 153 b 296 -9 500 45 405 -9 b 66 193 159 -9 66 66 b 355 386 66 327 172 386 l 553 386 l 553 404 b 351 629 553 555 492 629 b 142 514 256 629 195 590 l 93 551 b 351 687 159 642 235 687 m 307 47 b 553 239 429 47 511 119 l 553 336 l 358 336 b 132 191 205 336 132 285 b 307 47 132 103 197 47 "},"ầ":{"ha":724,"x_min":0,"x_max":0,"o":"m 326 1045 l 166 1238 l 236 1238 l 379 1045 m 209 758 l 151 758 l 353 966 l 554 758 l 496 758 l 353 907 m 351 687 b 613 415 520 687 613 587 l 613 0 l 558 0 l 554 153 b 296 -9 500 45 405 -9 b 66 193 159 -9 66 66 b 355 386 66 327 172 386 l 553 386 l 553 404 b 351 629 553 555 492 629 b 142 514 256 629 195 590 l 93 551 b 351 687 159 642 235 687 m 307 47 b 553 239 429 47 511 119 l 553 336 l 358 336 b 132 191 205 336 132 285 b 307 47 132 103 197 47 "},"ẫ":{"ha":724,"x_min":0,"x_max":0,"o":"m 258 1197 b 180 1082 210 1198 180 1154 l 139 1082 b 260 1240 139 1181 185 1240 b 451 1112 368 1240 365 1112 b 524 1234 493 1112 524 1159 l 566 1234 b 451 1068 566 1133 519 1068 b 258 1197 336 1068 341 1198 m 353 966 l 554 758 l 496 758 l 353 907 l 209 758 l 151 758 m 351 687 b 613 415 520 687 613 587 l 613 0 l 558 0 l 554 153 b 296 -9 500 45 405 -9 b 66 193 159 -9 66 66 b 355 386 66 327 172 386 l 553 386 l 553 404 b 351 629 553 555 492 629 b 142 514 256 629 195 590 l 93 551 b 351 687 159 642 235 687 m 307 47 b 553 239 429 47 511 119 l 553 336 l 358 336 b 132 191 205 336 132 285 b 307 47 132 103 197 47 "},"ä":{"ha":724,"x_min":0,"x_max":0,"o":"m 260 824 l 204 824 l 204 958 l 260 958 m 499 824 l 444 824 l 444 958 l 499 958 m 351 687 b 613 415 520 687 613 587 l 613 0 l 558 0 l 554 153 b 296 -9 500 45 405 -9 b 66 193 159 -9 66 66 b 355 386 66 327 172 386 l 553 386 l 553 404 b 351 629 553 555 492 629 b 142 514 256 629 195 590 l 93 551 b 351 687 159 642 235 687 m 307 47 b 553 239 429 47 511 119 l 553 336 l 358 336 b 132 191 205 336 132 285 b 307 47 132 103 197 47 "},"à":{"ha":724,"x_min":0,"x_max":0,"o":"m 326 765 l 166 958 l 236 958 l 379 765 m 351 687 b 613 415 520 687 613 587 l 613 0 l 558 0 l 554 153 b 296 -9 500 45 405 -9 b 66 193 159 -9 66 66 b 355 386 66 327 172 386 l 553 386 l 553 404 b 351 629 553 555 492 629 b 142 514 256 629 195 590 l 93 551 b 351 687 159 642 235 687 m 307 47 b 553 239 429 47 511 119 l 553 336 l 358 336 b 132 191 205 336 132 285 b 307 47 132 103 197 47 "},"ā":{"ha":724,"x_min":0,"x_max":0,"o":"m 538 844 l 169 844 l 169 885 l 538 885 m 351 687 b 613 415 520 687 613 587 l 613 0 l 558 0 l 554 153 b 296 -9 500 45 405 -9 b 66 193 159 -9 66 66 b 355 386 66 327 172 386 l 553 386 l 553 404 b 351 629 553 555 492 629 b 142 514 256 629 195 590 l 93 551 b 351 687 159 642 235 687 m 307 47 b 553 239 429 47 511 119 l 553 336 l 358 336 b 132 191 205 336 132 285 b 307 47 132 103 197 47 "},"ą":{"ha":724,"x_min":0,"x_max":0,"o":"m 669 -231 b 525 -310 634 -283 589 -310 b 388 -185 441 -310 388 -263 b 558 3 388 -89 480 -17 l 554 153 b 296 -9 500 45 405 -9 b 66 193 159 -9 66 66 b 355 386 66 327 172 386 l 553 386 l 553 404 b 351 629 553 555 492 629 b 142 514 256 629 195 590 l 93 551 b 351 687 159 642 235 687 b 613 415 520 687 613 587 l 613 0 b 430 -178 519 -26 430 -92 b 524 -267 430 -239 465 -267 b 634 -206 572 -267 605 -248 m 307 47 b 553 239 429 47 511 119 l 553 336 l 358 336 b 132 191 205 336 132 285 b 307 47 132 103 197 47 "},"å":{"ha":724,"x_min":0,"x_max":0,"o":"m 351 748 b 228 871 282 748 228 804 b 351 995 228 940 283 995 b 475 871 418 995 475 940 b 351 748 475 803 420 748 m 351 956 b 267 872 304 956 267 919 b 351 787 267 823 304 787 b 436 872 399 787 436 825 b 351 956 436 919 400 956 m 351 687 b 613 415 520 687 613 587 l 613 0 l 558 0 l 554 153 b 296 -9 500 45 405 -9 b 66 193 159 -9 66 66 b 355 386 66 327 172 386 l 553 386 l 553 404 b 351 629 553 555 492 629 b 142 514 256 629 195 590 l 93 551 b 351 687 159 642 235 687 m 307 47 b 553 239 429 47 511 119 l 553 336 l 358 336 b 132 191 205 336 132 285 b 307 47 132 103 197 47 "},"ã":{"ha":724,"x_min":0,"x_max":0,"o":"m 258 917 b 180 802 210 918 180 874 l 139 802 b 260 960 139 901 185 960 b 451 831 368 960 365 831 b 524 954 493 831 524 879 l 566 954 b 451 788 566 852 519 788 b 258 917 336 788 341 918 m 351 687 b 613 415 520 687 613 587 l 613 0 l 558 0 l 554 153 b 296 -9 500 45 405 -9 b 66 193 159 -9 66 66 b 355 386 66 327 172 386 l 553 386 l 553 404 b 351 629 553 555 492 629 b 142 514 256 629 195 590 l 93 551 b 351 687 159 642 235 687 m 307 47 b 553 239 429 47 511 119 l 553 336 l 358 336 b 132 191 205 336 132 285 b 307 47 132 103 197 47 "},"ɐ":{"ha":724,"x_min":0,"x_max":0,"o":"m 374 48 b 582 163 468 48 530 87 l 631 127 b 374 -9 566 35 490 -9 b 111 262 204 -9 111 91 l 111 677 l 166 677 l 170 525 b 428 687 224 632 319 687 b 658 485 565 687 658 611 b 369 292 658 351 552 292 l 171 292 l 171 273 b 374 48 171 122 232 48 m 417 631 b 171 439 296 631 213 558 l 171 341 l 366 341 b 592 487 519 341 592 393 b 417 631 592 574 528 631 "},"æ":{"ha":1194,"x_min":0,"x_max":0,"o":"m 292 -9 b 64 189 159 -9 64 67 b 353 374 64 326 170 374 l 551 374 b 549 422 551 391 551 407 b 347 630 544 564 477 630 b 138 518 254 630 191 592 l 92 552 b 349 686 159 645 235 686 b 589 488 485 686 567 616 b 839 685 628 608 717 685 b 1123 378 1053 685 1123 515 b 1118 325 1123 359 1120 332 l 613 325 b 846 51 616 154 701 51 b 1058 141 937 51 992 74 l 1103 100 b 846 -7 1024 21 953 -7 b 583 174 715 -7 623 62 b 292 -9 523 59 433 -9 m 1058 374 b 1057 418 1059 388 1059 404 b 834 629 1052 514 992 629 b 612 374 703 629 618 522 m 301 41 b 562 225 422 41 505 104 b 551 325 555 257 552 290 l 357 325 b 125 190 203 325 125 286 b 301 41 125 99 193 41 "},"b":{"ha":819,"x_min":0,"x_max":0,"o":"m 456 -9 b 197 177 338 -9 237 64 l 197 0 l 131 0 l 131 958 l 197 958 l 197 501 b 456 687 237 614 336 687 b 742 340 637 687 742 533 b 456 -9 742 146 637 -9 m 443 51 b 677 340 593 51 677 176 b 443 628 677 503 593 628 b 192 340 292 628 192 504 b 443 51 192 175 292 51 "},"c":{"ha":692,"x_min":0,"x_max":0,"o":"m 372 -9 b 75 338 186 -9 75 142 b 371 687 75 515 173 687 b 637 505 491 687 587 623 l 576 481 b 371 628 539 572 464 628 b 140 338 214 628 140 488 b 372 50 140 186 215 50 b 571 195 467 50 541 104 l 630 173 b 372 -9 589 58 494 -9 "},"ć":{"ha":692,"x_min":0,"x_max":0,"o":"m 486 958 l 555 958 l 391 765 l 339 765 m 372 -9 b 75 338 186 -9 75 142 b 371 687 75 515 173 687 b 637 505 491 687 587 623 l 576 481 b 371 628 539 572 464 628 b 140 338 214 628 140 488 b 372 50 140 186 215 50 b 571 195 467 50 541 104 l 630 173 b 372 -9 589 58 494 -9 "},"č":{"ha":692,"x_min":0,"x_max":0,"o":"m 170 958 l 228 958 l 371 812 l 515 958 l 572 958 l 371 755 m 372 -9 b 75 338 186 -9 75 142 b 371 687 75 515 173 687 b 637 505 491 687 587 623 l 576 481 b 371 628 539 572 464 628 b 140 338 214 628 140 488 b 372 50 140 186 215 50 b 571 195 467 50 541 104 l 630 173 b 372 -9 589 58 494 -9 "},"ç":{"ha":692,"x_min":0,"x_max":0,"o":"m 372 50 b 571 195 467 50 541 104 l 630 173 b 389 -9 591 63 502 -3 l 336 -98 b 382 -102 353 -98 368 -100 b 509 -222 465 -116 509 -158 b 373 -349 509 -298 456 -349 b 243 -261 317 -349 263 -313 l 283 -244 b 374 -308 296 -282 333 -308 b 467 -224 433 -308 467 -277 b 341 -130 467 -172 422 -138 b 278 -128 322 -129 302 -128 l 346 -8 b 75 338 176 5 75 151 b 371 687 75 515 173 687 b 637 505 491 687 587 623 l 576 481 b 371 628 539 572 464 628 b 140 338 214 628 140 488 b 372 50 140 186 215 50 "},"ċ":{"ha":692,"x_min":0,"x_max":0,"o":"m 338 958 l 405 958 l 405 824 l 338 824 m 372 -9 b 75 338 186 -9 75 142 b 371 687 75 515 173 687 b 637 505 491 687 587 623 l 576 481 b 371 628 539 572 464 628 b 140 338 214 628 140 488 b 372 50 140 186 215 50 b 571 195 467 50 541 104 l 630 173 b 372 -9 589 58 494 -9 "},"d":{"ha":833,"x_min":0,"x_max":0,"o":"m 378 -9 b 74 340 197 -9 74 145 b 378 687 74 533 197 687 b 637 501 497 687 597 614 l 637 958 l 703 958 l 703 0 l 642 0 l 640 180 b 378 -9 599 64 499 -9 m 392 50 b 642 340 542 50 642 174 b 392 628 642 504 542 628 b 139 340 241 628 139 503 b 392 50 139 176 241 50 "},"ð":{"ha":774,"x_min":0,"x_max":0,"o":"m 381 -9 b 64 304 203 -9 64 134 b 380 610 64 475 208 610 b 523 558 435 610 485 590 l 380 800 l 290 698 l 249 698 l 363 828 l 284 958 l 355 958 l 405 874 l 478 958 l 520 958 l 424 849 l 650 463 b 697 302 680 414 697 362 b 381 -9 697 130 555 -9 m 380 54 b 632 303 519 54 632 165 b 380 552 632 440 519 552 b 130 303 243 552 130 440 b 380 54 130 165 243 54 "},"ď":{"ha":1260,"x_min":0,"x_max":0,"o":"m 378 -9 b 74 340 197 -9 74 145 b 378 687 74 533 197 687 b 637 501 497 687 597 614 l 637 958 l 703 958 l 703 0 l 642 0 l 640 180 b 378 -9 599 64 499 -9 m 1059 958 l 1126 958 l 1021 682 l 978 682 m 392 50 b 642 340 542 50 642 174 b 392 628 642 504 542 628 b 139 340 241 628 139 503 b 392 50 139 176 241 50 "},"đ":{"ha":833,"x_min":0,"x_max":0,"o":"m 797 803 l 703 803 l 703 0 l 642 0 l 640 180 b 378 -9 599 64 499 -9 b 74 340 197 -9 74 145 b 378 687 74 533 197 687 b 637 501 497 687 597 614 l 637 803 l 366 803 l 366 849 l 637 849 l 637 958 l 703 958 l 703 849 l 797 849 m 392 50 b 642 340 542 50 642 174 b 392 628 642 504 542 628 b 139 340 241 628 139 503 b 392 50 139 176 241 50 "},"ǳ":{"ha":1492,"x_min":0,"x_max":0,"o":"m 637 958 l 703 958 l 703 0 l 642 0 l 640 180 b 378 -9 599 64 499 -9 b 74 340 197 -9 74 145 b 378 687 74 533 197 687 b 637 501 497 687 597 614 m 1435 621 l 966 56 l 1431 56 l 1431 0 l 882 0 l 882 52 l 1359 623 l 907 623 l 907 677 l 1435 677 m 392 50 b 642 340 542 50 642 174 b 392 628 642 504 542 628 b 139 340 241 628 139 503 b 392 50 139 176 241 50 "},"ǆ":{"ha":1492,"x_min":0,"x_max":0,"o":"m 637 958 l 703 958 l 703 0 l 642 0 l 640 180 b 378 -9 599 64 499 -9 b 74 340 197 -9 74 145 b 378 687 74 533 197 687 b 637 501 497 687 597 614 m 1158 755 l 957 958 l 1015 958 l 1158 812 l 1302 958 l 1359 958 m 1435 621 l 966 56 l 1431 56 l 1431 0 l 882 0 l 882 52 l 1359 623 l 907 623 l 907 677 l 1435 677 m 392 50 b 642 340 542 50 642 174 b 392 628 642 504 542 628 b 139 340 241 628 139 503 b 392 50 139 176 241 50 "},"e":{"ha":730,"x_min":0,"x_max":0,"o":"m 383 -9 b 76 335 189 -9 76 136 b 372 687 76 532 185 687 b 659 383 588 687 659 511 b 654 325 659 362 657 335 l 144 325 b 383 50 148 153 237 50 b 594 141 471 50 528 73 l 640 100 b 383 -9 562 22 490 -9 m 593 374 b 593 416 595 387 595 403 b 371 631 588 515 527 631 b 144 374 239 631 154 526 "},"é":{"ha":730,"x_min":0,"x_max":0,"o":"m 478 958 l 548 958 l 383 765 l 332 765 m 383 -9 b 76 335 189 -9 76 136 b 372 687 76 532 185 687 b 659 383 588 687 659 511 b 654 325 659 362 657 335 l 144 325 b 383 50 148 153 237 50 b 594 141 471 50 528 73 l 640 100 b 383 -9 562 22 490 -9 m 593 374 b 593 416 595 387 595 403 b 371 631 588 515 527 631 b 144 374 239 631 154 526 "},"ě":{"ha":730,"x_min":0,"x_max":0,"o":"m 163 958 l 220 958 l 363 812 l 508 958 l 565 958 l 363 755 m 383 -9 b 76 335 189 -9 76 136 b 372 687 76 532 185 687 b 659 383 588 687 659 511 b 654 325 659 362 657 335 l 144 325 b 383 50 148 153 237 50 b 594 141 471 50 528 73 l 640 100 b 383 -9 562 22 490 -9 m 593 374 b 593 416 595 387 595 403 b 371 631 588 515 527 631 b 144 374 239 631 154 526 "},"ê":{"ha":730,"x_min":0,"x_max":0,"o":"m 364 966 l 566 758 l 508 758 l 364 907 l 220 758 l 163 758 m 383 -9 b 76 335 189 -9 76 136 b 372 687 76 532 185 687 b 659 383 588 687 659 511 b 654 325 659 362 657 335 l 144 325 b 383 50 148 153 237 50 b 594 141 471 50 528 73 l 640 100 b 383 -9 562 22 490 -9 m 593 374 b 593 416 595 387 595 403 b 371 631 588 515 527 631 b 144 374 239 631 154 526 "},"ế":{"ha":730,"x_min":0,"x_max":0,"o":"m 478 1238 l 548 1238 l 383 1045 l 332 1045 m 364 966 l 566 758 l 508 758 l 364 907 l 220 758 l 163 758 m 383 -9 b 76 335 189 -9 76 136 b 372 687 76 532 185 687 b 659 383 588 687 659 511 b 654 325 659 362 657 335 l 144 325 b 383 50 148 153 237 50 b 594 141 471 50 528 73 l 640 100 b 383 -9 562 22 490 -9 m 593 374 b 593 416 595 387 595 403 b 371 631 588 515 527 631 b 144 374 239 631 154 526 "},"ề":{"ha":730,"x_min":0,"x_max":0,"o":"m 178 1238 l 248 1238 l 391 1045 l 338 1045 m 364 966 l 566 758 l 508 758 l 364 907 l 220 758 l 163 758 m 383 -9 b 76 335 189 -9 76 136 b 372 687 76 532 185 687 b 659 383 588 687 659 511 b 654 325 659 362 657 335 l 144 325 b 383 50 148 153 237 50 b 594 141 471 50 528 73 l 640 100 b 383 -9 562 22 490 -9 m 593 374 b 593 416 595 387 595 403 b 371 631 588 515 527 631 b 144 374 239 631 154 526 "},"ễ":{"ha":730,"x_min":0,"x_max":0,"o":"m 463 1068 b 269 1197 347 1068 353 1198 b 191 1082 221 1198 191 1154 l 151 1082 b 271 1240 151 1181 197 1240 b 463 1112 379 1240 376 1112 b 535 1234 505 1112 535 1159 l 577 1234 b 463 1068 577 1133 531 1068 m 364 966 l 566 758 l 508 758 l 364 907 l 220 758 l 163 758 m 383 -9 b 76 335 189 -9 76 136 b 372 687 76 532 185 687 b 659 383 588 687 659 511 b 654 325 659 362 657 335 l 144 325 b 383 50 148 153 237 50 b 594 141 471 50 528 73 l 640 100 b 383 -9 562 22 490 -9 m 593 374 b 593 416 595 387 595 403 b 371 631 588 515 527 631 b 144 374 239 631 154 526 "},"ë":{"ha":730,"x_min":0,"x_max":0,"o":"m 216 958 l 271 958 l 271 824 l 216 824 m 455 958 l 511 958 l 511 824 l 455 824 m 383 -9 b 76 335 189 -9 76 136 b 372 687 76 532 185 687 b 659 383 588 687 659 511 b 654 325 659 362 657 335 l 144 325 b 383 50 148 153 237 50 b 594 141 471 50 528 73 l 640 100 b 383 -9 562 22 490 -9 m 593 374 b 593 416 595 387 595 403 b 371 631 588 515 527 631 b 144 374 239 631 154 526 "},"ė":{"ha":730,"x_min":0,"x_max":0,"o":"m 330 958 l 397 958 l 397 824 l 330 824 m 383 -9 b 76 335 189 -9 76 136 b 372 687 76 532 185 687 b 659 383 588 687 659 511 b 654 325 659 362 657 335 l 144 325 b 383 50 148 153 237 50 b 594 141 471 50 528 73 l 640 100 b 383 -9 562 22 490 -9 m 593 374 b 593 416 595 387 595 403 b 371 631 588 515 527 631 b 144 374 239 631 154 526 "},"è":{"ha":730,"x_min":0,"x_max":0,"o":"m 178 958 l 248 958 l 391 765 l 338 765 m 383 -9 b 76 335 189 -9 76 136 b 372 687 76 532 185 687 b 659 383 588 687 659 511 b 654 325 659 362 657 335 l 144 325 b 383 50 148 153 237 50 b 594 141 471 50 528 73 l 640 100 b 383 -9 562 22 490 -9 m 593 374 b 593 416 595 387 595 403 b 371 631 588 515 527 631 b 144 374 239 631 154 526 "},"ē":{"ha":730,"x_min":0,"x_max":0,"o":"m 180 885 l 549 885 l 549 844 l 180 844 m 383 -9 b 76 335 189 -9 76 136 b 372 687 76 532 185 687 b 659 383 588 687 659 511 b 654 325 659 362 657 335 l 144 325 b 383 50 148 153 237 50 b 594 141 471 50 528 73 l 640 100 b 383 -9 562 22 490 -9 m 593 374 b 593 416 595 387 595 403 b 371 631 588 515 527 631 b 144 374 239 631 154 526 "},"ę":{"ha":730,"x_min":0,"x_max":0,"o":"m 659 383 b 654 325 659 362 657 335 l 144 325 b 383 50 148 153 237 50 b 594 141 471 50 528 73 l 640 100 b 475 0 587 46 536 15 b 368 -146 414 -33 368 -85 b 462 -236 368 -208 404 -236 b 572 -175 510 -236 543 -216 l 608 -199 b 463 -279 572 -252 528 -279 b 326 -154 379 -279 326 -232 b 408 -9 326 -94 362 -43 b 383 -9 399 -9 391 -9 b 76 335 189 -9 76 136 b 372 687 76 532 185 687 b 659 383 588 687 659 511 m 593 374 b 593 416 595 387 595 403 b 371 631 588 515 527 631 b 144 374 239 631 154 526 l 593 374 "},"ɘ":{"ha":730,"x_min":0,"x_max":0,"o":"m 347 -9 b 90 100 239 -9 168 22 l 136 141 b 347 50 201 73 258 50 b 586 325 493 50 582 153 l 75 325 b 71 383 73 335 71 362 b 358 687 71 511 142 687 b 654 335 545 687 654 532 b 347 -9 654 136 541 -9 m 586 374 b 359 631 576 526 491 631 b 136 416 203 631 142 515 b 136 374 135 403 135 387 l 586 374 "},"ẽ":{"ha":730,"x_min":0,"x_max":0,"o":"m 463 788 b 269 917 347 788 353 918 b 191 802 221 918 191 874 l 151 802 b 271 960 151 901 197 960 b 463 831 379 960 376 831 b 535 954 505 831 535 879 l 577 954 b 463 788 577 852 531 788 m 383 -9 b 76 335 189 -9 76 136 b 372 687 76 532 185 687 b 659 383 588 687 659 511 b 654 325 659 362 657 335 l 144 325 b 383 50 148 153 237 50 b 594 141 471 50 528 73 l 640 100 b 383 -9 562 22 490 -9 m 593 374 b 593 416 595 387 595 403 b 371 631 588 515 527 631 b 144 374 239 631 154 526 "},"ǝ":{"ha":730,"x_min":0,"x_max":0,"o":"m 347 687 b 654 342 541 687 654 541 b 358 -9 654 146 545 -9 b 71 294 142 -9 71 166 b 75 353 71 315 73 342 l 586 353 b 347 627 582 525 493 627 b 136 536 258 627 201 604 l 90 578 b 347 687 168 656 239 687 m 136 304 b 136 262 135 290 135 275 b 359 46 142 163 203 46 b 586 304 491 46 576 151 "},"ə":{"ha":730,"x_min":0,"x_max":0,"o":"m 347 687 b 654 342 541 687 654 541 b 358 -9 654 146 545 -9 b 71 294 142 -9 71 166 b 75 353 71 315 73 342 l 586 353 b 347 627 582 525 493 627 b 136 536 258 627 201 604 l 90 578 b 347 687 168 656 239 687 m 136 304 b 136 262 135 290 135 275 b 359 46 142 163 203 46 b 586 304 491 46 576 151 "},"f":{"ha":484,"x_min":0,"x_max":0,"o":"m 178 623 l 31 623 l 31 677 l 179 677 l 179 787 b 363 968 179 907 250 968 b 456 943 395 968 427 958 l 435 890 b 368 909 411 903 390 909 b 244 782 288 909 244 869 l 244 677 l 456 677 l 456 623 l 244 623 l 244 0 l 178 0 "},"g":{"ha":703,"x_min":0,"x_max":0,"o":"m 361 73 b 647 -109 500 51 647 33 b 370 -308 647 -235 533 -308 b 72 -84 184 -308 72 -216 b 74 -54 72 -73 72 -64 l 183 50 b 87 177 127 72 87 109 b 165 305 87 233 113 273 b 104 459 127 345 104 398 b 354 687 104 593 212 687 b 528 626 423 687 484 665 l 617 705 l 652 663 l 564 586 b 602 455 588 549 602 505 b 355 231 602 320 496 231 b 208 271 299 231 248 245 b 144 187 163 251 144 224 b 361 73 144 106 240 92 m 356 635 b 170 458 245 635 170 562 b 355 286 170 357 243 286 b 538 457 467 286 538 355 b 356 635 538 562 466 635 m 370 -256 b 585 -115 500 -256 585 -203 b 339 16 585 -18 474 -4 b 226 37 301 22 262 28 l 131 -68 b 132 -91 131 -77 131 -84 b 370 -256 138 -195 233 -256 "},"ğ":{"ha":703,"x_min":0,"x_max":0,"o":"m 346 780 b 141 958 210 780 141 843 l 189 958 b 346 821 189 868 247 821 b 501 958 446 821 501 869 l 549 958 b 346 780 549 841 478 780 m 361 73 b 647 -109 500 51 647 33 b 370 -308 647 -235 533 -308 b 72 -84 184 -308 72 -216 b 74 -54 72 -73 72 -64 l 183 50 b 87 177 127 72 87 109 b 165 305 87 233 113 273 b 104 459 127 345 104 398 b 354 687 104 593 212 687 b 528 626 423 687 484 665 l 617 705 l 652 663 l 564 586 b 602 455 588 549 602 505 b 355 231 602 320 496 231 b 208 271 299 231 248 245 b 144 187 163 251 144 224 b 361 73 144 106 240 92 m 356 635 b 170 458 245 635 170 562 b 355 286 170 357 243 286 b 538 457 467 286 538 355 b 356 635 538 562 466 635 m 370 -256 b 585 -115 500 -256 585 -203 b 339 16 585 -18 474 -4 b 226 37 301 22 262 28 l 131 -68 b 132 -91 131 -77 131 -84 b 370 -256 138 -195 233 -256 "},"ģ":{"ha":703,"x_min":0,"x_max":0,"o":"m 371 764 l 302 764 l 460 964 l 505 964 m 361 73 b 647 -109 500 51 647 33 b 370 -308 647 -235 533 -308 b 72 -84 184 -308 72 -216 b 74 -54 72 -73 72 -64 l 183 50 b 87 177 127 72 87 109 b 165 305 87 233 113 273 b 104 459 127 345 104 398 b 354 687 104 593 212 687 b 528 626 423 687 484 665 l 617 705 l 652 663 l 564 586 b 602 455 588 549 602 505 b 355 231 602 320 496 231 b 208 271 299 231 248 245 b 144 187 163 251 144 224 b 361 73 144 106 240 92 m 356 635 b 170 458 245 635 170 562 b 355 286 170 357 243 286 b 538 457 467 286 538 355 b 356 635 538 562 466 635 m 370 -256 b 585 -115 500 -256 585 -203 b 339 16 585 -18 474 -4 b 226 37 301 22 262 28 l 131 -68 b 132 -91 131 -77 131 -84 b 370 -256 138 -195 233 -256 "},"ġ":{"ha":703,"x_min":0,"x_max":0,"o":"m 379 824 l 312 824 l 312 958 l 379 958 m 361 73 b 647 -109 500 51 647 33 b 370 -308 647 -235 533 -308 b 72 -84 184 -308 72 -216 b 74 -54 72 -73 72 -64 l 183 50 b 87 177 127 72 87 109 b 165 305 87 233 113 273 b 104 459 127 345 104 398 b 354 687 104 593 212 687 b 528 626 423 687 484 665 l 617 705 l 652 663 l 564 586 b 602 455 588 549 602 505 b 355 231 602 320 496 231 b 208 271 299 231 248 245 b 144 187 163 251 144 224 b 361 73 144 106 240 92 m 356 635 b 170 458 245 635 170 562 b 355 286 170 357 243 286 b 538 457 467 286 538 355 b 356 635 538 562 466 635 m 370 -256 b 585 -115 500 -256 585 -203 b 339 16 585 -18 474 -4 b 226 37 301 22 262 28 l 131 -68 b 132 -91 131 -77 131 -84 b 370 -256 138 -195 233 -256 "},"ɡ":{"ha":829,"x_min":0,"x_max":0,"o":"m 386 -312 b 98 -133 251 -312 150 -239 l 147 -97 b 387 -254 186 -189 274 -254 b 635 28 532 -254 635 -142 l 635 182 b 376 -5 594 68 495 -5 b 71 342 195 -5 71 150 b 375 687 71 533 195 687 b 635 501 494 687 594 614 l 635 677 l 700 677 l 700 28 b 386 -312 700 -174 571 -312 m 389 56 b 640 342 539 56 640 179 b 389 628 640 504 539 628 b 136 342 239 628 136 503 b 389 56 136 180 239 56 "},"h":{"ha":756,"x_min":0,"x_max":0,"o":"m 131 958 l 196 958 l 196 551 b 411 687 234 638 314 687 b 644 437 563 687 640 585 l 644 0 l 578 0 l 578 416 b 397 628 578 549 523 628 b 196 401 272 628 196 536 l 196 0 l 131 0 "},"ħ":{"ha":756,"x_min":0,"x_max":0,"o":"m 411 687 b 644 437 563 687 640 585 l 644 0 l 578 0 l 578 416 b 397 628 578 549 523 628 b 196 401 272 628 196 536 l 196 0 l 131 0 l 131 782 l -1 782 l -1 828 l 131 828 l 131 958 l 196 958 l 196 828 l 429 828 l 429 782 l 196 782 l 196 551 b 411 687 234 638 314 687 "},"i":{"ha":321,"x_min":0,"x_max":0,"o":"m 127 958 l 195 958 l 195 824 l 127 824 m 129 677 l 193 677 l 193 0 l 129 0 "},"ı":{"ha":323,"x_min":0,"x_max":0,"o":"m 129 677 l 193 677 l 193 0 l 129 0 "},"í":{"ha":323,"x_min":0,"x_max":0,"o":"m 275 958 l 345 958 l 180 765 l 128 765 m 129 677 l 193 677 l 193 0 l 129 0 "},"ǐ":{"ha":323,"x_min":0,"x_max":0,"o":"m -41 958 l 17 958 l 160 812 l 304 958 l 361 958 l 160 755 m 129 677 l 193 677 l 193 0 l 129 0 "},"î":{"ha":323,"x_min":0,"x_max":0,"o":"m 161 966 l 362 758 l 304 758 l 161 907 l 17 758 l -41 758 m 129 677 l 193 677 l 193 0 l 129 0 "},"ï":{"ha":323,"x_min":0,"x_max":0,"o":"m 12 958 l 68 958 l 68 824 l 12 824 m 252 958 l 307 958 l 307 824 l 252 824 m 129 677 l 193 677 l 193 0 l 129 0 "},"ì":{"ha":323,"x_min":0,"x_max":0,"o":"m -26 958 l 44 958 l 187 765 l 134 765 m 129 677 l 193 677 l 193 0 l 129 0 "},"ī":{"ha":323,"x_min":0,"x_max":0,"o":"m -23 885 l 346 885 l 346 844 l -23 844 m 129 677 l 193 677 l 193 0 l 129 0 "},"į":{"ha":323,"x_min":0,"x_max":0,"o":"m 194 824 l 127 824 l 127 958 l 194 958 m 250 -231 b 105 -310 214 -283 170 -310 b -32 -185 21 -310 -32 -263 b 129 0 -32 -92 53 -22 l 129 677 l 193 677 l 193 0 b 10 -178 100 -26 10 -92 b 104 -267 10 -239 45 -267 b 214 -206 152 -267 185 -248 "},"ĩ":{"ha":323,"x_min":0,"x_max":0,"o":"m 259 788 b 66 917 144 788 149 918 b -12 802 18 918 -12 874 l -53 802 b 68 960 -53 901 -7 960 b 259 831 176 960 173 831 b 332 954 301 831 332 879 l 374 954 b 259 788 374 852 328 788 m 129 677 l 193 677 l 193 0 l 129 0 "},"j":{"ha":325,"x_min":0,"x_max":0,"o":"m 129 958 l 196 958 l 196 824 l 129 824 m 22 -292 b -85 -271 -9 -292 -56 -282 l -68 -214 b 16 -233 -39 -226 -5 -233 b 130 -94 94 -233 130 -189 l 130 677 l 195 677 l 195 -90 b 22 -292 195 -218 140 -292 "},"ȷ":{"ha":325,"x_min":0,"x_max":0,"o":"m 22 -292 b -85 -271 -9 -292 -56 -282 l -68 -214 b 16 -233 -39 -226 -5 -233 b 130 -94 94 -233 130 -189 l 130 677 l 195 677 l 195 -90 b 22 -292 195 -218 140 -292 "},"k":{"ha":734,"x_min":0,"x_max":0,"o":"m 131 958 l 195 958 l 195 280 l 574 677 l 659 677 l 416 427 l 703 0 l 627 0 l 372 386 l 195 201 l 195 0 l 131 0 "},"ķ":{"ha":734,"x_min":0,"x_max":0,"o":"m 131 958 l 195 958 l 195 280 l 574 677 l 659 677 l 416 427 l 703 0 l 627 0 l 372 386 l 195 201 l 195 0 l 131 0 m 382 -78 l 452 -78 l 293 -301 l 248 -301 "},"ĸ":{"ha":733,"x_min":0,"x_max":0,"o":"m 130 677 l 194 677 l 194 280 l 574 677 l 659 677 l 415 427 l 702 0 l 625 0 l 371 386 l 194 201 l 194 0 l 130 0 "},"l":{"ha":368,"x_min":0,"x_max":0,"o":"m 245 -9 b 126 146 142 -9 126 58 l 126 958 l 191 958 l 191 161 b 271 50 191 102 193 50 b 329 56 288 50 309 52 l 331 1 b 245 -9 302 -5 271 -9 "},"ĺ":{"ha":368,"x_min":0,"x_max":0,"o":"m 292 1238 l 361 1238 l 197 1045 l 145 1045 m 245 -9 b 126 146 142 -9 126 58 l 126 958 l 191 958 l 191 161 b 271 50 191 102 193 50 b 329 56 288 50 309 52 l 331 1 b 245 -9 302 -5 271 -9 "},"ľ":{"ha":794,"x_min":0,"x_max":0,"o":"m 245 -9 b 126 146 142 -9 126 58 l 126 958 l 191 958 l 191 161 b 271 50 191 102 193 50 b 329 56 288 50 309 52 l 331 1 b 245 -9 302 -5 271 -9 m 593 958 l 661 958 l 555 682 l 512 682 "},"ļ":{"ha":368,"x_min":0,"x_max":0,"o":"m 245 -9 b 126 146 142 -9 126 58 l 126 958 l 191 958 l 191 161 b 271 50 191 102 193 50 b 329 56 288 50 309 52 l 331 1 b 245 -9 302 -5 271 -9 m 222 -78 l 292 -78 l 133 -301 l 88 -301 "},"ǉ":{"ha":692,"x_min":0,"x_max":0,"o":"m 245 -9 b 126 146 142 -9 126 58 l 126 958 l 191 958 l 191 161 b 271 50 191 102 193 50 b 329 56 288 50 309 52 l 331 1 b 245 -9 302 -5 271 -9 m 496 958 l 564 958 l 564 824 l 496 824 m 389 -292 b 282 -271 358 -292 312 -282 l 300 -214 b 384 -233 328 -226 363 -233 b 498 -94 462 -233 498 -189 l 498 677 l 562 677 l 562 -90 b 389 -292 562 -218 508 -292 "},"ł":{"ha":382,"x_min":0,"x_max":0,"o":"m 336 1 b 251 -9 309 -5 277 -9 b 132 146 148 -9 132 58 l 132 363 l 68 295 l 68 361 l 132 429 l 132 958 l 196 958 l 196 496 l 315 623 l 315 558 l 196 431 l 196 161 b 277 50 196 102 198 50 b 335 56 293 50 314 52 "},"m":{"ha":1183,"x_min":0,"x_max":0,"o":"m 129 677 l 192 677 l 192 549 b 403 687 227 640 304 687 b 615 527 510 687 587 635 b 841 687 650 630 734 687 b 1071 392 1000 687 1071 576 l 1071 0 l 1006 0 l 1006 385 b 829 627 1006 545 955 627 b 633 411 709 627 633 538 l 633 0 l 568 0 l 568 416 b 392 627 568 549 511 627 b 194 411 271 627 194 538 l 194 0 l 130 0 "},"n":{"ha":753,"x_min":0,"x_max":0,"o":"m 129 677 l 193 677 l 193 551 b 410 687 232 638 313 687 b 641 437 562 687 637 585 l 641 0 l 577 0 l 577 416 b 394 627 577 551 514 627 b 193 411 272 627 193 547 l 193 0 l 129 0 "},"ń":{"ha":753,"x_min":0,"x_max":0,"o":"m 495 958 l 565 958 l 400 765 l 349 765 m 129 677 l 193 677 l 193 551 b 410 687 232 638 313 687 b 641 437 562 687 637 585 l 641 0 l 577 0 l 577 416 b 394 627 577 551 514 627 b 193 411 272 627 193 547 l 193 0 l 129 0 "},"ň":{"ha":753,"x_min":0,"x_max":0,"o":"m 180 958 l 237 958 l 380 812 l 525 958 l 582 958 l 380 755 m 129 677 l 193 677 l 193 551 b 410 687 232 638 313 687 b 641 437 562 687 637 585 l 641 0 l 577 0 l 577 416 b 394 627 577 551 514 627 b 193 411 272 627 193 547 l 193 0 l 129 0 "},"ņ":{"ha":753,"x_min":0,"x_max":0,"o":"m 129 677 l 193 677 l 193 551 b 410 687 232 638 313 687 b 641 437 562 687 637 585 l 641 0 l 577 0 l 577 416 b 394 627 577 551 514 627 b 193 411 272 627 193 547 l 193 0 l 129 0 m 351 -78 l 420 -78 l 262 -301 l 217 -301 "},"ŋ":{"ha":768,"x_min":0,"x_max":0,"o":"m 456 -292 b 361 -275 427 -292 389 -283 l 378 -225 b 455 -239 404 -233 434 -239 b 577 -96 538 -239 577 -189 l 577 416 b 394 627 577 551 514 627 b 193 411 272 627 193 547 l 193 0 l 129 0 l 129 677 l 193 677 l 193 551 b 410 687 231 638 313 687 b 641 437 562 687 637 585 l 641 -89 b 456 -292 641 -213 578 -292 "},"ǌ":{"ha":1078,"x_min":0,"x_max":0,"o":"m 882 958 l 949 958 l 949 824 l 882 824 m 129 677 l 193 677 l 193 551 b 410 687 232 638 313 687 b 641 437 562 687 637 585 l 641 0 l 577 0 l 577 416 b 394 627 577 551 514 627 b 193 411 272 627 193 547 l 193 0 l 129 0 m 775 -292 b 668 -271 744 -292 698 -282 l 686 -214 b 770 -233 714 -226 749 -233 b 884 -94 848 -233 884 -189 l 884 677 l 948 677 l 948 -90 b 775 -292 948 -218 894 -292 "},"ñ":{"ha":753,"x_min":0,"x_max":0,"o":"m 479 788 b 286 917 364 788 370 918 b 208 802 238 918 208 874 l 168 802 b 288 960 168 901 214 960 b 479 831 396 960 393 831 b 552 954 522 831 552 879 l 594 954 b 479 788 594 852 548 788 m 129 677 l 193 677 l 193 551 b 410 687 232 638 313 687 b 641 437 562 687 637 585 l 641 0 l 577 0 l 577 416 b 394 627 577 551 514 627 b 193 411 272 627 193 547 l 193 0 l 129 0 "},"o":{"ha":785,"x_min":0,"x_max":0,"o":"m 391 -9 b 71 340 203 -9 71 144 b 391 687 71 534 203 687 b 714 340 578 687 714 534 b 391 -9 714 145 578 -9 m 391 47 b 648 340 546 47 648 177 b 391 630 648 503 546 630 b 138 340 237 630 138 503 b 391 47 138 176 237 47 "},"ó":{"ha":785,"x_min":0,"x_max":0,"o":"m 506 958 l 576 958 l 411 765 l 359 765 m 391 -9 b 71 340 203 -9 71 144 b 391 687 71 534 203 687 b 714 340 578 687 714 534 b 391 -9 714 145 578 -9 m 391 47 b 648 340 546 47 648 177 b 391 630 648 503 546 630 b 138 340 237 630 138 503 b 391 47 138 176 237 47 "},"ǒ":{"ha":785,"x_min":0,"x_max":0,"o":"m 191 958 l 248 958 l 391 812 l 536 958 l 593 958 l 391 755 m 391 -9 b 71 340 203 -9 71 144 b 391 687 71 534 203 687 b 714 340 578 687 714 534 b 391 -9 714 145 578 -9 m 391 47 b 648 340 546 47 648 177 b 391 630 648 503 546 630 b 138 340 237 630 138 503 b 391 47 138 176 237 47 "},"ô":{"ha":785,"x_min":0,"x_max":0,"o":"m 392 966 l 593 758 l 536 758 l 392 907 l 248 758 l 191 758 m 391 -9 b 71 340 203 -9 71 144 b 391 687 71 534 203 687 b 714 340 578 687 714 534 b 391 -9 714 145 578 -9 m 391 47 b 648 340 546 47 648 177 b 391 630 648 503 546 630 b 138 340 237 630 138 503 b 391 47 138 176 237 47 "},"ố":{"ha":785,"x_min":0,"x_max":0,"o":"m 506 1238 l 576 1238 l 411 1045 l 359 1045 m 392 966 l 593 758 l 536 758 l 392 907 l 248 758 l 191 758 m 391 -9 b 71 340 203 -9 71 144 b 391 687 71 534 203 687 b 714 340 578 687 714 534 b 391 -9 714 145 578 -9 m 391 47 b 648 340 546 47 648 177 b 391 630 648 503 546 630 b 138 340 237 630 138 503 b 391 47 138 176 237 47 "},"ồ":{"ha":785,"x_min":0,"x_max":0,"o":"m 205 1238 l 275 1238 l 418 1045 l 366 1045 m 392 966 l 593 758 l 536 758 l 392 907 l 248 758 l 191 758 m 391 -9 b 71 340 203 -9 71 144 b 391 687 71 534 203 687 b 714 340 578 687 714 534 b 391 -9 714 145 578 -9 m 391 47 b 648 340 546 47 648 177 b 391 630 648 503 546 630 b 138 340 237 630 138 503 b 391 47 138 176 237 47 "},"ỗ":{"ha":785,"x_min":0,"x_max":0,"o":"m 490 1068 b 297 1197 375 1068 380 1198 b 219 1082 249 1198 219 1154 l 178 1082 b 299 1240 178 1181 224 1240 b 490 1112 407 1240 404 1112 b 563 1234 532 1112 563 1159 l 605 1234 b 490 1068 605 1133 559 1068 m 392 966 l 593 758 l 536 758 l 392 907 l 248 758 l 191 758 m 391 -9 b 71 340 203 -9 71 144 b 391 687 71 534 203 687 b 714 340 578 687 714 534 b 391 -9 714 145 578 -9 m 391 47 b 648 340 546 47 648 177 b 391 630 648 503 546 630 b 138 340 237 630 138 503 b 391 47 138 176 237 47 "},"ö":{"ha":785,"x_min":0,"x_max":0,"o":"m 243 958 l 299 958 l 299 824 l 243 824 m 483 958 l 538 958 l 538 824 l 483 824 m 391 -9 b 71 340 203 -9 71 144 b 391 687 71 534 203 687 b 714 340 578 687 714 534 b 391 -9 714 145 578 -9 m 391 47 b 648 340 546 47 648 177 b 391 630 648 503 546 630 b 138 340 237 630 138 503 b 391 47 138 176 237 47 "},"ò":{"ha":785,"x_min":0,"x_max":0,"o":"m 205 958 l 275 958 l 418 765 l 366 765 m 391 -9 b 71 340 203 -9 71 144 b 391 687 71 534 203 687 b 714 340 578 687 714 534 b 391 -9 714 145 578 -9 m 391 47 b 648 340 546 47 648 177 b 391 630 648 503 546 630 b 138 340 237 630 138 503 b 391 47 138 176 237 47 "},"ő":{"ha":785,"x_min":0,"x_max":0,"o":"m 393 958 l 454 958 l 298 756 l 247 756 m 614 958 l 684 958 l 519 756 l 468 756 m 391 -9 b 71 340 203 -9 71 144 b 391 687 71 534 203 687 b 714 340 578 687 714 534 b 391 -9 714 145 578 -9 m 391 47 b 648 340 546 47 648 177 b 391 630 648 503 546 630 b 138 340 237 630 138 503 b 391 47 138 176 237 47 "},"ō":{"ha":785,"x_min":0,"x_max":0,"o":"m 208 885 l 577 885 l 577 844 l 208 844 m 391 -9 b 71 340 203 -9 71 144 b 391 687 71 534 203 687 b 714 340 578 687 714 534 b 391 -9 714 145 578 -9 m 391 47 b 648 340 546 47 648 177 b 391 630 648 503 546 630 b 138 340 237 630 138 503 b 391 47 138 176 237 47 "},"ǫ":{"ha":785,"x_min":0,"x_max":0,"o":"m 452 -4 b 282 -178 363 -32 282 -96 b 376 -267 282 -239 317 -267 b 486 -206 424 -267 457 -248 l 522 -231 b 377 -310 486 -283 441 -310 b 240 -185 293 -310 240 -263 b 375 -9 240 -103 307 -38 b 71 340 196 -1 71 149 b 391 687 71 534 203 687 b 714 340 578 687 714 534 b 452 -4 714 167 608 26 m 138 340 b 391 47 138 176 237 47 b 648 340 546 47 648 177 b 391 630 648 503 546 630 b 138 340 237 630 138 503 "},"ɔ":{"ha":692,"x_min":0,"x_max":0,"o":"m 319 -9 b 62 173 198 -9 102 58 l 121 195 b 320 50 151 104 224 50 b 551 338 477 50 551 186 b 321 628 551 488 477 628 b 116 481 228 628 153 572 l 55 505 b 321 687 104 623 201 687 b 616 338 519 687 616 515 b 319 -9 616 142 505 -9 "},"ø":{"ha":785,"x_min":0,"x_max":0,"o":"m 587 621 b 714 340 665 557 714 456 b 391 -9 714 145 578 -9 b 222 39 328 -9 270 8 l 197 0 l 161 0 l 197 57 b 71 340 119 120 71 222 b 391 687 71 534 203 687 b 562 638 455 687 513 669 l 586 677 l 622 677 l 587 621 m 138 340 b 229 109 138 245 172 162 l 530 589 b 391 630 492 615 445 630 b 138 340 237 630 138 503 m 391 47 b 648 340 546 47 648 177 b 555 570 648 435 614 517 l 254 90 b 391 47 292 63 338 47 "},"ǿ":{"ha":785,"x_min":0,"x_max":0,"o":"m 411 765 l 359 765 l 506 958 l 576 958 m 587 621 b 714 340 665 557 714 456 b 391 -9 714 145 578 -9 b 222 39 328 -9 270 8 l 197 0 l 161 0 l 197 57 b 71 340 119 120 71 222 b 391 687 71 534 203 687 b 562 638 455 687 513 669 l 586 677 l 622 677 l 587 621 m 138 340 b 229 109 138 245 172 162 l 530 589 b 391 630 492 615 445 630 b 138 340 237 630 138 503 m 391 47 b 648 340 546 47 648 177 b 555 570 648 435 614 517 l 254 90 b 391 47 292 63 338 47 "},"õ":{"ha":785,"x_min":0,"x_max":0,"o":"m 490 788 b 297 917 375 788 380 918 b 219 802 249 918 219 874 l 178 802 b 299 960 178 901 224 960 b 490 831 407 960 404 831 b 563 954 532 831 563 879 l 605 954 b 490 788 605 852 559 788 m 391 -9 b 71 340 203 -9 71 144 b 391 687 71 534 203 687 b 714 340 578 687 714 534 b 391 -9 714 145 578 -9 m 391 47 b 648 340 546 47 648 177 b 391 630 648 503 546 630 b 138 340 237 630 138 503 b 391 47 138 176 237 47 "},"œ":{"ha":1303,"x_min":0,"x_max":0,"o":"m 1232 383 b 1228 325 1232 362 1231 335 l 718 325 b 957 50 722 153 810 50 b 1168 141 1045 50 1102 73 l 1213 100 b 957 -9 1136 22 1064 -9 b 678 176 820 -9 723 63 b 391 -9 626 65 521 -9 b 71 340 203 -9 71 144 b 391 687 71 534 203 687 b 680 501 522 687 628 612 b 945 687 724 612 816 687 b 1232 383 1162 687 1232 511 m 1167 374 b 1167 416 1168 387 1168 403 b 945 631 1162 515 1101 631 b 718 374 812 631 728 526 l 1167 374 m 391 47 b 648 340 546 47 648 177 b 391 630 648 503 546 630 b 138 340 237 630 138 503 b 391 47 138 176 237 47 "},"p":{"ha":819,"x_min":0,"x_max":0,"o":"m 131 677 l 197 677 l 197 500 b 456 687 237 614 338 687 b 742 338 637 687 742 532 b 456 -9 742 144 637 -9 b 197 176 336 -9 237 64 l 197 -281 l 131 -281 m 443 50 b 677 338 593 50 677 176 b 443 627 677 501 593 627 b 192 338 292 627 192 503 b 443 50 192 174 292 50 "},"þ":{"ha":819,"x_min":0,"x_max":0,"o":"m 456 687 b 742 338 637 687 742 532 b 456 -9 742 144 637 -9 b 197 176 336 -9 237 64 l 197 -281 l 131 -281 l 131 958 l 197 958 l 197 500 b 456 687 237 614 338 687 m 443 627 b 192 338 292 627 192 503 b 443 50 192 174 292 50 b 677 338 593 50 677 176 b 443 627 677 501 593 627 "},"q":{"ha":819,"x_min":0,"x_max":0,"o":"m 622 -281 l 622 176 b 363 -9 581 64 482 -9 b 77 338 182 -9 77 144 b 362 687 77 532 182 687 b 622 500 481 687 581 614 l 622 677 l 688 677 l 688 -281 m 376 50 b 627 338 526 50 627 174 b 376 627 627 503 526 627 b 141 338 225 627 141 501 b 376 50 141 176 225 50 "},"r":{"ha":532,"x_min":0,"x_max":0,"o":"m 129 677 l 192 677 l 192 526 b 410 687 228 638 328 687 b 510 660 446 687 481 678 l 480 606 b 402 624 456 618 429 624 b 192 366 307 624 192 553 l 192 0 l 129 0 "},"ŕ":{"ha":532,"x_min":0,"x_max":0,"o":"m 410 958 l 479 958 l 315 765 l 263 765 m 129 677 l 192 677 l 192 526 b 410 687 228 638 328 687 b 510 660 446 687 481 678 l 480 606 b 402 624 456 618 429 624 b 192 366 307 624 192 553 l 192 0 l 129 0 "},"ř":{"ha":532,"x_min":0,"x_max":0,"o":"m 94 958 l 152 958 l 295 812 l 439 958 l 496 958 l 295 755 m 129 677 l 192 677 l 192 526 b 410 687 228 638 328 687 b 510 660 446 687 481 678 l 480 606 b 402 624 456 618 429 624 b 192 366 307 624 192 553 l 192 0 l 129 0 "},"ŗ":{"ha":532,"x_min":0,"x_max":0,"o":"m 129 677 l 192 677 l 192 526 b 410 687 228 638 328 687 b 510 660 446 687 481 678 l 480 606 b 402 624 456 618 429 624 b 192 366 307 624 192 553 l 192 0 l 129 0 m 237 -78 l 306 -78 l 147 -301 l 102 -301 "},"s":{"ha":633,"x_min":0,"x_max":0,"o":"m 330 -9 b 58 165 199 -9 93 63 l 111 189 b 327 46 139 109 217 46 b 500 184 437 46 500 102 b 88 509 500 392 88 262 b 313 687 88 622 184 687 b 545 547 417 687 500 636 l 495 520 b 311 634 460 588 397 634 b 150 517 213 634 150 587 b 563 187 150 327 563 451 b 330 -9 563 59 463 -9 "},"ś":{"ha":633,"x_min":0,"x_max":0,"o":"m 423 958 l 493 958 l 328 765 l 277 765 m 330 -9 b 58 165 199 -9 93 63 l 111 189 b 327 46 139 109 217 46 b 500 184 437 46 500 102 b 88 509 500 392 88 262 b 313 687 88 622 184 687 b 545 547 417 687 500 636 l 495 520 b 311 634 460 588 397 634 b 150 517 213 634 150 587 b 563 187 150 327 563 451 b 330 -9 563 59 463 -9 "},"š":{"ha":633,"x_min":0,"x_max":0,"o":"m 108 958 l 165 958 l 309 812 l 453 958 l 510 958 l 309 755 m 330 -9 b 58 165 199 -9 93 63 l 111 189 b 327 46 139 109 217 46 b 500 184 437 46 500 102 b 88 509 500 392 88 262 b 313 687 88 622 184 687 b 545 547 417 687 500 636 l 495 520 b 311 634 460 588 397 634 b 150 517 213 634 150 587 b 563 187 150 327 563 451 b 330 -9 563 59 463 -9 "},"ş":{"ha":633,"x_min":0,"x_max":0,"o":"m 563 187 b 354 -9 563 67 475 -1 l 302 -98 b 347 -102 318 -98 334 -100 b 474 -222 430 -116 474 -158 b 338 -349 474 -298 421 -349 b 208 -261 282 -349 229 -313 l 248 -244 b 340 -308 262 -282 298 -308 b 433 -224 398 -308 433 -277 b 307 -130 433 -172 388 -138 b 243 -128 288 -129 268 -128 l 311 -9 b 58 165 189 -3 92 68 l 111 189 b 327 46 139 109 217 46 b 500 184 437 46 500 102 b 88 509 500 392 88 262 b 313 687 88 622 184 687 b 545 547 417 687 500 636 l 495 520 b 311 634 460 588 397 634 b 150 517 213 634 150 587 b 563 187 150 327 563 451 "},"ș":{"ha":633,"x_min":0,"x_max":0,"o":"m 330 -9 b 58 165 199 -9 93 63 l 111 189 b 327 46 139 109 217 46 b 500 184 437 46 500 102 b 88 509 500 392 88 262 b 313 687 88 622 184 687 b 545 547 417 687 500 636 l 495 520 b 311 634 460 588 397 634 b 150 517 213 634 150 587 b 563 187 150 327 563 451 b 330 -9 563 59 463 -9 m 307 -78 l 376 -78 l 218 -301 l 173 -301 "},"ß":{"ha":820,"x_min":0,"x_max":0,"o":"m 492 -9 b 317 33 430 -9 373 8 l 340 89 b 490 50 391 66 439 50 b 657 210 594 50 657 113 b 448 522 657 363 448 392 b 601 743 448 637 601 627 b 397 911 601 847 510 911 b 193 601 259 911 193 810 l 193 0 l 130 0 l 130 601 b 395 968 130 847 229 968 b 665 739 542 968 665 875 b 509 519 665 593 509 600 b 722 210 509 427 722 396 b 492 -9 722 77 629 -9 "},"t":{"ha":465,"x_min":0,"x_max":0,"o":"m 325 -9 b 149 191 208 -9 149 59 l 149 623 l 35 623 l 35 677 l 150 677 l 150 883 l 213 932 l 213 677 l 409 677 l 409 623 l 213 623 l 213 200 b 334 49 213 94 253 49 b 408 62 363 49 391 55 l 410 2 b 325 -9 391 -3 358 -9 "},"ŧ":{"ha":465,"x_min":0,"x_max":0,"o":"m 213 316 l 213 200 b 334 49 213 94 253 49 b 408 62 363 49 391 55 l 410 2 b 325 -9 391 -3 358 -9 b 149 191 208 -9 149 59 l 149 316 l 14 316 l 14 362 l 149 362 l 149 623 l 35 623 l 35 677 l 150 677 l 150 883 l 213 932 l 213 677 l 409 677 l 409 623 l 213 623 l 213 362 l 444 362 l 444 316 "},"ť":{"ha":891,"x_min":0,"x_max":0,"o":"m 690 958 l 758 958 l 652 682 l 609 682 m 325 -9 b 149 191 208 -9 149 59 l 149 623 l 35 623 l 35 677 l 150 677 l 150 883 l 213 932 l 213 677 l 409 677 l 409 623 l 213 623 l 213 200 b 334 49 213 94 253 49 b 408 62 363 49 391 55 l 410 2 b 325 -9 391 -3 358 -9 "},"ţ":{"ha":465,"x_min":0,"x_max":0,"o":"m 334 -102 b 460 -222 416 -116 460 -158 b 325 -349 460 -298 408 -349 b 195 -261 269 -349 215 -313 l 235 -244 b 326 -308 248 -282 285 -308 b 419 -224 385 -308 419 -277 b 293 -130 419 -172 374 -138 b 230 -128 274 -129 254 -128 l 298 -8 b 149 191 199 2 149 69 l 149 623 l 35 623 l 35 677 l 150 677 l 150 883 l 213 932 l 213 677 l 409 677 l 409 623 l 213 623 l 213 200 b 334 49 213 94 253 49 b 408 62 363 49 391 55 l 410 2 b 340 -9 394 -3 368 -7 l 288 -98 b 334 -102 304 -98 320 -100 "},"ț":{"ha":465,"x_min":0,"x_max":0,"o":"m 325 -9 b 149 191 208 -9 149 59 l 149 623 l 35 623 l 35 677 l 150 677 l 150 883 l 213 932 l 213 677 l 409 677 l 409 623 l 213 623 l 213 200 b 334 49 213 94 253 49 b 408 62 363 49 391 55 l 410 2 b 325 -9 391 -3 358 -9 m 294 -78 l 363 -78 l 204 -301 l 159 -301 "},"u":{"ha":753,"x_min":0,"x_max":0,"o":"m 344 -9 b 113 241 192 -9 116 93 l 113 677 l 176 677 l 176 262 b 359 51 176 127 239 51 b 560 267 481 51 560 131 l 560 677 l 624 677 l 624 0 l 560 0 l 560 127 b 344 -9 522 39 441 -9 "},"ú":{"ha":753,"x_min":0,"x_max":0,"o":"m 488 958 l 558 958 l 393 765 l 342 765 m 344 -9 b 113 241 192 -9 116 93 l 113 677 l 176 677 l 176 262 b 359 51 176 127 239 51 b 560 267 481 51 560 131 l 560 677 l 624 677 l 624 0 l 560 0 l 560 127 b 344 -9 522 39 441 -9 "},"ǔ":{"ha":753,"x_min":0,"x_max":0,"o":"m 173 958 l 231 958 l 374 812 l 518 958 l 575 958 l 374 755 m 344 -9 b 113 241 192 -9 116 93 l 113 677 l 176 677 l 176 262 b 359 51 176 127 239 51 b 560 267 481 51 560 131 l 560 677 l 624 677 l 624 0 l 560 0 l 560 127 b 344 -9 522 39 441 -9 "},"û":{"ha":753,"x_min":0,"x_max":0,"o":"m 374 966 l 576 758 l 518 758 l 374 907 l 231 758 l 173 758 m 344 -9 b 113 241 192 -9 116 93 l 113 677 l 176 677 l 176 262 b 359 51 176 127 239 51 b 560 267 481 51 560 131 l 560 677 l 624 677 l 624 0 l 560 0 l 560 127 b 344 -9 522 39 441 -9 "},"ü":{"ha":753,"x_min":0,"x_max":0,"o":"m 226 958 l 281 958 l 281 824 l 226 824 m 465 958 l 521 958 l 521 824 l 465 824 m 344 -9 b 113 241 192 -9 116 93 l 113 677 l 176 677 l 176 262 b 359 51 176 127 239 51 b 560 267 481 51 560 131 l 560 677 l 624 677 l 624 0 l 560 0 l 560 127 b 344 -9 522 39 441 -9 "},"ǘ":{"ha":753,"x_min":0,"x_max":0,"o":"m 488 1239 l 558 1239 l 393 1046 l 342 1046 m 226 958 l 281 958 l 281 824 l 226 824 m 465 958 l 521 958 l 521 824 l 465 824 m 344 -9 b 113 241 192 -9 116 93 l 113 677 l 176 677 l 176 262 b 359 51 176 127 239 51 b 560 267 481 51 560 131 l 560 677 l 624 677 l 624 0 l 560 0 l 560 127 b 344 -9 522 39 441 -9 "},"ǚ":{"ha":753,"x_min":0,"x_max":0,"o":"m 173 1239 l 231 1239 l 374 1093 l 518 1239 l 575 1239 l 374 1036 m 226 958 l 281 958 l 281 824 l 226 824 m 465 958 l 521 958 l 521 824 l 465 824 m 344 -9 b 113 241 192 -9 116 93 l 113 677 l 176 677 l 176 262 b 359 51 176 127 239 51 b 560 267 481 51 560 131 l 560 677 l 624 677 l 624 0 l 560 0 l 560 127 b 344 -9 522 39 441 -9 "},"ǜ":{"ha":753,"x_min":0,"x_max":0,"o":"m 188 1239 l 258 1239 l 401 1046 l 348 1046 m 226 958 l 281 958 l 281 824 l 226 824 m 465 958 l 521 958 l 521 824 l 465 824 m 344 -9 b 113 241 192 -9 116 93 l 113 677 l 176 677 l 176 262 b 359 51 176 127 239 51 b 560 267 481 51 560 131 l 560 677 l 624 677 l 624 0 l 560 0 l 560 127 b 344 -9 522 39 441 -9 "},"ǖ":{"ha":753,"x_min":0,"x_max":0,"o":"m 191 1166 l 559 1166 l 559 1124 l 191 1124 m 226 958 l 281 958 l 281 824 l 226 824 m 465 958 l 521 958 l 521 824 l 465 824 m 344 -9 b 113 241 192 -9 116 93 l 113 677 l 176 677 l 176 262 b 359 51 176 127 239 51 b 560 267 481 51 560 131 l 560 677 l 624 677 l 624 0 l 560 0 l 560 127 b 344 -9 522 39 441 -9 "},"ù":{"ha":753,"x_min":0,"x_max":0,"o":"m 188 958 l 258 958 l 401 765 l 348 765 m 344 -9 b 113 241 192 -9 116 93 l 113 677 l 176 677 l 176 262 b 359 51 176 127 239 51 b 560 267 481 51 560 131 l 560 677 l 624 677 l 624 0 l 560 0 l 560 127 b 344 -9 522 39 441 -9 "},"ű":{"ha":753,"x_min":0,"x_max":0,"o":"m 376 958 l 436 958 l 281 756 l 229 756 m 597 958 l 667 958 l 502 756 l 450 756 m 344 -9 b 113 241 192 -9 116 93 l 113 677 l 176 677 l 176 262 b 359 51 176 127 239 51 b 560 267 481 51 560 131 l 560 677 l 624 677 l 624 0 l 560 0 l 560 127 b 344 -9 522 39 441 -9 "},"ū":{"ha":753,"x_min":0,"x_max":0,"o":"m 191 885 l 559 885 l 559 844 l 191 844 m 344 -9 b 113 241 192 -9 116 93 l 113 677 l 176 677 l 176 262 b 359 51 176 127 239 51 b 560 267 481 51 560 131 l 560 677 l 624 677 l 624 0 l 560 0 l 560 127 b 344 -9 522 39 441 -9 "},"ų":{"ha":753,"x_min":0,"x_max":0,"o":"m 680 -231 b 536 -310 645 -283 600 -310 b 399 -185 452 -310 399 -263 b 560 1 399 -92 484 -22 l 560 127 b 344 -9 522 39 441 -9 b 113 241 192 -9 116 93 l 113 677 l 176 677 l 176 262 b 359 51 176 127 239 51 b 560 267 481 51 560 131 l 560 677 l 624 677 l 624 0 b 441 -178 530 -26 441 -92 b 534 -267 441 -239 476 -267 b 645 -206 583 -267 616 -248 "},"ů":{"ha":753,"x_min":0,"x_max":0,"o":"m 373 748 b 250 871 304 748 250 804 b 373 995 250 940 304 995 b 496 871 440 995 496 940 b 373 748 496 803 442 748 m 373 787 b 458 872 420 787 458 825 b 373 956 458 919 422 956 b 289 872 326 956 289 919 b 373 787 289 823 326 787 m 344 -9 b 113 241 192 -9 116 93 l 113 677 l 176 677 l 176 262 b 359 51 176 127 239 51 b 560 267 481 51 560 131 l 560 677 l 624 677 l 624 0 l 560 0 l 560 127 b 344 -9 522 39 441 -9 "},"ũ":{"ha":753,"x_min":0,"x_max":0,"o":"m 473 788 b 279 917 357 788 363 918 b 201 802 231 918 201 874 l 161 802 b 281 960 161 901 207 960 b 473 831 389 960 387 831 b 545 954 515 831 545 879 l 587 954 b 473 788 587 852 541 788 m 344 -9 b 113 241 192 -9 116 93 l 113 677 l 176 677 l 176 262 b 359 51 176 127 239 51 b 560 267 481 51 560 131 l 560 677 l 624 677 l 624 0 l 560 0 l 560 127 b 344 -9 522 39 441 -9 "},"v":{"ha":680,"x_min":0,"x_max":0,"o":"m 35 677 l 104 677 l 340 81 l 574 677 l 646 677 l 368 0 l 311 0 "},"w":{"ha":1012,"x_min":0,"x_max":0,"o":"m 47 677 l 116 677 l 275 96 l 475 677 l 538 677 l 736 96 l 897 677 l 966 677 l 772 0 l 708 0 l 507 591 l 304 0 l 240 0 "},"ẃ":{"ha":1012,"x_min":0,"x_max":0,"o":"m 622 958 l 692 958 l 527 765 l 475 765 m 47 677 l 116 677 l 275 96 l 475 677 l 538 677 l 736 96 l 897 677 l 966 677 l 772 0 l 708 0 l 507 591 l 304 0 l 240 0 "},"ŵ":{"ha":1012,"x_min":0,"x_max":0,"o":"m 508 966 l 709 758 l 652 758 l 508 907 l 364 758 l 307 758 m 47 677 l 116 677 l 275 96 l 475 677 l 538 677 l 736 96 l 897 677 l 966 677 l 772 0 l 708 0 l 507 591 l 304 0 l 240 0 "},"ẅ":{"ha":1012,"x_min":0,"x_max":0,"o":"m 359 958 l 415 958 l 415 824 l 359 824 m 599 958 l 654 958 l 654 824 l 599 824 m 47 677 l 116 677 l 275 96 l 475 677 l 538 677 l 736 96 l 897 677 l 966 677 l 772 0 l 708 0 l 507 591 l 304 0 l 240 0 "},"ẁ":{"ha":1012,"x_min":0,"x_max":0,"o":"m 321 958 l 391 958 l 534 765 l 481 765 m 47 677 l 116 677 l 275 96 l 475 677 l 538 677 l 736 96 l 897 677 l 966 677 l 772 0 l 708 0 l 507 591 l 304 0 l 240 0 "},"x":{"ha":676,"x_min":0,"x_max":0,"o":"m 296 340 l 41 677 l 119 677 l 338 385 l 555 677 l 634 677 l 380 340 l 635 0 l 555 0 l 338 294 l 120 0 l 41 0 "},"y":{"ha":689,"x_min":0,"x_max":0,"o":"m 329 5 l 33 677 l 104 677 l 363 82 l 583 677 l 653 677 l 287 -290 l 216 -290 "},"ý":{"ha":689,"x_min":0,"x_max":0,"o":"m 454 958 l 524 958 l 359 765 l 308 765 m 329 5 l 33 677 l 104 677 l 363 82 l 583 677 l 653 677 l 287 -290 l 216 -290 "},"ŷ":{"ha":689,"x_min":0,"x_max":0,"o":"m 340 966 l 542 758 l 484 758 l 340 907 l 197 758 l 139 758 m 329 5 l 33 677 l 104 677 l 363 82 l 583 677 l 653 677 l 287 -290 l 216 -290 "},"ÿ":{"ha":689,"x_min":0,"x_max":0,"o":"m 192 958 l 248 958 l 248 824 l 192 824 m 431 958 l 487 958 l 487 824 l 431 824 m 329 5 l 33 677 l 104 677 l 363 82 l 583 677 l 653 677 l 287 -290 l 216 -290 "},"ỳ":{"ha":689,"x_min":0,"x_max":0,"o":"m 154 958 l 224 958 l 367 765 l 314 765 m 329 5 l 33 677 l 104 677 l 363 82 l 583 677 l 653 677 l 287 -290 l 216 -290 "},"ỹ":{"ha":689,"x_min":0,"x_max":0,"o":"m 439 788 b 245 917 323 788 329 918 b 168 802 197 918 168 874 l 127 802 b 248 960 127 901 173 960 b 439 831 355 960 353 831 b 511 954 481 831 511 879 l 553 954 b 439 788 553 852 507 788 m 329 5 l 33 677 l 104 677 l 363 82 l 583 677 l 653 677 l 287 -290 l 216 -290 "},"z":{"ha":659,"x_min":0,"x_max":0,"o":"m 602 621 l 132 56 l 597 56 l 597 0 l 49 0 l 49 52 l 526 623 l 73 623 l 73 677 l 602 677 "},"ź":{"ha":659,"x_min":0,"x_max":0,"o":"m 344 765 l 292 765 l 439 958 l 509 958 m 602 621 l 132 56 l 597 56 l 597 0 l 49 0 l 49 52 l 526 623 l 73 623 l 73 677 l 602 677 "},"ž":{"ha":659,"x_min":0,"x_max":0,"o":"m 324 755 l 123 958 l 181 958 l 324 812 l 469 958 l 526 958 m 602 621 l 132 56 l 597 56 l 597 0 l 49 0 l 49 52 l 526 623 l 73 623 l 73 677 l 602 677 "},"ż":{"ha":659,"x_min":0,"x_max":0,"o":"m 358 824 l 291 824 l 291 958 l 358 958 m 602 621 l 132 56 l 597 56 l 597 0 l 49 0 l 49 52 l 526 623 l 73 623 l 73 677 l 602 677 "},"ﬁ":{"ha":689,"x_min":0,"x_max":0,"o":"m 562 0 l 503 0 l 503 623 l 215 623 l 215 0 l 152 0 l 152 623 l 31 623 l 31 677 l 152 677 l 152 736 b 373 968 152 899 248 968 b 561 905 449 968 508 945 l 529 861 b 376 914 487 895 437 914 b 215 736 275 914 215 865 l 215 677 l 562 677 "},"ﬂ":{"ha":726,"x_min":0,"x_max":0,"o":"m 604 -9 b 484 146 500 -9 484 58 l 484 871 b 358 914 449 899 406 914 b 209 736 264 914 209 865 l 209 677 l 365 677 l 364 623 l 209 623 l 209 0 l 144 0 l 144 623 l 31 623 l 31 677 l 144 677 l 144 736 b 355 968 144 899 236 968 b 548 904 430 968 480 949 l 548 161 b 629 50 548 102 551 50 b 687 56 646 50 666 52 l 689 1 b 604 -9 661 -5 629 -9 "},"ª":{"ha":725,"x_min":0,"x_max":0,"o":"m 314 477 b 153 617 220 477 153 531 b 357 758 153 713 229 758 l 498 758 b 497 789 498 768 498 779 b 353 930 493 882 446 930 b 202 847 286 930 241 902 l 170 870 b 354 968 220 939 273 968 b 537 777 473 968 537 898 l 537 484 l 500 484 l 500 587 b 314 477 455 513 394 477 m 320 515 b 494 637 397 515 457 557 b 498 721 496 664 498 693 l 359 721 b 196 617 250 721 196 686 b 320 515 196 555 246 515 "},"º":{"ha":694,"x_min":0,"x_max":0,"o":"m 347 486 b 118 728 215 486 118 592 b 347 968 118 862 215 968 b 575 728 478 968 575 862 b 347 486 575 592 479 486 m 347 529 b 528 728 456 529 528 614 b 347 926 528 840 456 926 b 165 728 237 926 165 840 b 347 529 165 614 237 529 "},"ǃ":{"ha":385,"x_min":0,"x_max":0,"o":"m 161 958 l 223 958 l 216 262 l 168 262 m 157 138 l 227 138 l 227 0 l 157 0 "},"μ":{"ha":873,"x_min":0,"x_max":0,"o":"m 194 677 l 258 677 l 258 262 b 441 51 258 127 321 51 b 642 267 562 51 642 131 l 642 677 l 705 677 l 705 0 l 642 0 l 642 127 b 425 -9 604 39 522 -9 b 248 95 338 -9 277 27 l 248 -241 l 194 -241 "},"π":{"ha":745,"x_min":0,"x_max":0,"o":"m 632 -9 b 479 344 529 -9 479 109 l 479 623 l 196 623 l 196 0 l 141 0 l 141 623 l 65 623 l 65 677 l 614 677 l 614 623 l 534 623 l 534 351 b 635 41 534 136 568 41 b 691 52 650 41 670 44 l 708 7 b 632 -9 683 -3 656 -9 "},"⁄":{"ha":185,"x_min":0,"x_max":0,"o":"m 332 958 l 380 958 l -146 0 l -195 0 "},".":{"ha":420,"x_min":0,"x_max":0,"o":"m 178 139 l 243 139 l 243 0 l 178 0 "},",":{"ha":446,"x_min":0,"x_max":0,"o":"m 271 177 l 345 177 l 160 -216 l 113 -216 "},":":{"ha":433,"x_min":0,"x_max":0,"o":"m 182 647 l 251 647 l 251 508 l 182 508 m 182 139 l 251 139 l 251 0 l 182 0 "},";":{"ha":459,"x_min":0,"x_max":0,"o":"m 233 647 l 302 647 l 302 508 l 233 508 m 250 177 l 323 177 l 138 -216 l 91 -216 "},"…":{"ha":981,"x_min":0,"x_max":0,"o":"m 178 139 l 243 139 l 243 0 l 178 0 m 458 139 l 523 139 l 523 0 l 458 0 m 739 139 l 804 139 l 804 0 l 739 0 "},"!":{"ha":423,"x_min":0,"x_max":0,"o":"m 180 958 l 243 958 l 237 263 l 186 263 m 177 139 l 246 139 l 246 0 l 177 0 "},"¡":{"ha":423,"x_min":0,"x_max":0,"o":"m 246 958 l 246 819 l 177 819 l 177 958 m 237 695 l 243 0 l 180 0 l 186 695 "},"?":{"ha":728,"x_min":0,"x_max":0,"o":"m 331 378 b 578 723 331 577 578 524 b 355 913 578 846 495 913 b 139 712 220 913 140 836 l 81 712 b 353 968 83 870 191 968 b 635 722 522 968 635 880 b 387 377 635 484 387 524 l 387 260 l 331 260 m 325 139 l 395 139 l 395 0 l 325 0 "},"¿":{"ha":728,"x_min":0,"x_max":0,"o":"m 404 819 l 334 819 l 334 958 l 404 958 m 397 581 b 151 235 397 381 151 435 b 373 45 151 112 233 45 b 589 246 509 45 588 123 l 647 246 b 375 -9 646 88 538 -9 b 93 237 207 -9 93 78 b 341 581 93 475 341 434 l 341 698 l 397 698 "},"·":{"ha":480,"x_min":0,"x_max":0,"o":"m 240 408 b 153 496 191 408 153 448 b 240 583 153 546 191 583 b 328 496 289 583 328 545 b 240 408 328 448 288 408 "},"•":{"ha":599,"x_min":0,"x_max":0,"o":"m 300 165 b 138 326 211 165 138 237 b 300 488 138 415 211 488 b 460 326 389 488 460 415 b 300 165 460 237 389 165 "},"*":{"ha":643,"x_min":0,"x_max":0,"o":"m 169 624 l 291 757 l 117 781 l 145 864 l 302 791 l 279 958 l 364 958 l 340 791 l 498 864 l 526 781 l 352 757 l 473 624 l 403 574 l 321 739 l 238 574 "},"#":{"ha":972,"x_min":0,"x_max":0,"o":"m 259 294 l 87 294 l 87 342 l 269 342 l 329 634 l 145 634 l 145 684 l 339 684 l 399 958 l 452 958 l 393 682 l 657 682 l 715 958 l 768 958 l 710 682 l 886 682 l 886 634 l 700 634 l 638 342 l 828 342 l 828 294 l 628 294 l 568 0 l 514 0 l 576 294 l 311 294 l 251 0 l 197 0 m 587 342 l 646 634 l 382 634 l 322 342 "},"/":{"ha":589,"x_min":0,"x_max":0,"o":"m 507 958 l 569 958 l 83 -289 l 20 -289 "},"\\":{"ha":611,"x_min":0,"x_max":0,"o":"m 18 1026 l 81 1026 l 593 -290 l 530 -290 "},"‥":{"ha":701,"x_min":0,"x_max":0,"o":"m 178 139 l 243 139 l 243 0 l 178 0 m 458 139 l 523 139 l 523 0 l 458 0 "},"‣":{"ha":602,"x_min":0,"x_max":0,"o":"m 180 523 l 508 337 l 180 150 "},"(":{"ha":383,"x_min":0,"x_max":0,"o":"m 262 -28 b 105 478 163 87 105 317 b 262 985 105 663 156 856 l 324 985 b 158 477 207 842 158 648 b 323 -28 158 300 216 101 l 262 -28 "},")":{"ha":383,"x_min":0,"x_max":0,"o":"m 60 -28 b 225 477 167 101 225 300 b 59 985 225 648 176 842 l 121 985 b 278 478 227 856 278 663 b 121 -28 278 317 220 87 "},"{":{"ha":425,"x_min":0,"x_max":0,"o":"m 294 -90 b 157 74 205 -90 157 -26 l 157 327 b 78 418 157 378 123 402 l 78 471 b 157 576 127 484 157 507 l 157 856 b 303 1016 157 961 205 1016 l 363 1016 l 363 971 l 322 971 b 214 854 244 971 214 932 l 214 575 b 132 447 214 501 186 465 l 132 441 b 214 328 183 421 214 386 l 214 75 b 313 -45 214 1 249 -45 l 362 -45 l 362 -90 l 294 -90 "},"}":{"ha":425,"x_min":0,"x_max":0,"o":"m 63 -90 l 63 -45 l 113 -45 b 212 75 176 -45 212 1 l 212 328 b 294 441 212 386 242 421 l 294 447 b 212 575 239 465 212 501 l 212 854 b 103 971 212 932 181 971 l 62 971 l 62 1016 l 122 1016 b 268 856 220 1016 268 961 l 268 576 b 347 471 268 507 298 484 l 347 418 b 268 327 302 402 268 378 l 268 74 b 132 -90 268 -26 220 -90 "},"[":{"ha":452,"x_min":0,"x_max":0,"o":"m 155 1032 l 395 1032 l 395 987 l 210 987 l 210 -30 l 395 -30 l 395 -76 l 155 -76 "},"]":{"ha":452,"x_min":0,"x_max":0,"o":"m 58 -76 l 58 -30 l 243 -30 l 243 987 l 58 987 l 58 1032 l 297 1032 l 297 -76 "},"-":{"ha":600,"x_min":0,"x_max":0,"o":"m 122 453 l 478 453 l 478 402 l 122 402 "},"­":{"ha":696,"x_min":0,"x_max":0,"o":"m 122 453 l 575 453 l 575 402 l 122 402 "},"–":{"ha":724,"x_min":0,"x_max":0,"o":"m 122 453 l 603 453 l 603 402 l 122 402 "},"—":{"ha":1569,"x_min":0,"x_max":0,"o":"m 90 453 l 1478 453 l 1478 402 l 90 402 "},"_":{"ha":884,"x_min":0,"x_max":0,"o":"m 174 0 l 710 0 l 710 -51 l 174 -51 "},"―":{"ha":1058,"x_min":0,"x_max":0,"o":"m 122 453 l 936 453 l 936 402 l 122 402 "},"‚":{"ha":389,"x_min":0,"x_max":0,"o":"m 258 177 l 332 177 l 146 -216 l 100 -216 "},"„":{"ha":616,"x_min":0,"x_max":0,"o":"m 251 177 l 325 177 l 140 -216 l 93 -216 m 473 177 l 547 177 l 362 -216 l 315 -216 "},"“":{"ha":612,"x_min":0,"x_max":0,"o":"m 260 565 l 75 958 l 149 958 l 307 565 m 477 565 l 292 958 l 366 958 l 524 565 "},"”":{"ha":612,"x_min":0,"x_max":0,"o":"m 245 958 l 319 958 l 134 565 l 87 565 m 463 958 l 537 958 l 352 565 l 305 565 "},"‘":{"ha":395,"x_min":0,"x_max":0,"o":"m 260 565 l 75 958 l 149 958 l 307 565 "},"’":{"ha":395,"x_min":0,"x_max":0,"o":"m 245 958 l 319 958 l 134 565 l 87 565 "},"«":{"ha":664,"x_min":0,"x_max":0,"o":"m 60 347 l 321 574 l 321 515 l 130 347 l 321 178 l 321 119 m 302 347 l 562 574 l 562 515 l 371 347 l 562 178 l 562 119 "},"»":{"ha":664,"x_min":0,"x_max":0,"o":"m 102 178 l 293 347 l 102 515 l 102 574 l 362 347 l 102 119 m 343 178 l 534 347 l 343 515 l 343 574 l 604 347 l 343 119 "},"‹":{"ha":422,"x_min":0,"x_max":0,"o":"m 60 347 l 321 574 l 321 515 l 130 347 l 321 178 l 321 119 "},"›":{"ha":422,"x_min":0,"x_max":0,"o":"m 102 178 l 293 347 l 102 515 l 102 574 l 362 347 l 102 119 "},"\"":{"ha":625,"x_min":0,"x_max":0,"o":"m 180 958 l 235 958 l 235 654 l 180 654 m 389 958 l 445 958 l 445 654 l 389 654 "},"'":{"ha":414,"x_min":0,"x_max":0,"o":"m 179 958 l 235 958 l 235 673 l 179 673 "}," ":{"ha":361,"x_min":0,"x_max":0,"o":""}," ":{"ha":382,"x_min":0,"x_max":0,"o":""},"¢":{"ha":813,"x_min":0,"x_max":0,"o":"m 406 -8 b 132 338 235 3 132 149 b 406 686 132 509 223 675 l 406 814 l 444 814 l 444 686 b 694 505 557 682 647 617 l 633 481 b 444 627 598 567 529 621 l 444 52 b 628 195 532 56 599 109 l 688 173 b 444 -9 648 62 558 -4 l 444 -143 l 406 -144 m 406 625 b 197 338 265 614 197 481 b 406 53 197 193 267 64 "},"¤":{"ha":971,"x_min":0,"x_max":0,"o":"m 184 166 l 252 233 b 252 629 153 345 153 515 l 185 694 l 221 732 l 288 665 b 684 665 401 763 571 764 l 751 731 l 787 695 l 720 629 b 720 232 819 515 819 345 l 787 166 l 751 129 l 684 196 b 287 196 571 98 401 98 l 220 129 m 303 249 b 667 249 404 148 567 148 b 667 612 768 349 768 513 b 304 612 567 713 404 713 b 303 249 203 512 203 348 "},"$":{"ha":782,"x_min":0,"x_max":0,"o":"m 699 258 b 406 -8 699 102 574 -5 l 406 -176 l 374 -178 l 374 -7 b 76 249 222 1 102 94 l 142 264 b 374 52 161 136 250 62 l 374 485 b 131 730 251 532 131 585 b 374 967 131 866 236 960 l 374 1125 l 406 1125 l 406 968 b 657 818 517 964 600 918 l 602 783 b 406 907 556 863 494 903 l 406 538 b 699 258 544 485 699 433 m 197 732 b 374 551 197 635 277 590 l 374 907 b 197 732 271 900 197 829 m 406 52 b 633 253 542 54 633 139 b 406 472 633 378 523 427 l 406 52 "},"€":{"ha":933,"x_min":0,"x_max":0,"o":"m 570 -9 b 231 343 371 -9 263 146 l 115 343 l 142 393 l 223 393 b 219 479 220 421 219 450 b 224 572 219 511 221 542 l 115 572 l 142 623 l 231 623 b 568 968 267 818 376 968 b 821 838 673 968 760 922 l 779 804 b 568 909 727 874 654 909 b 290 623 409 909 317 787 l 653 623 l 626 572 l 281 572 b 276 483 278 543 276 514 b 281 395 276 453 277 422 l 653 395 l 626 345 l 290 345 b 570 50 316 175 405 50 b 772 149 653 50 723 84 l 812 111 b 570 -9 753 33 668 -9 "},"ƒ":{"ha":715,"x_min":0,"x_max":0,"o":"m 98 -262 b 304 -55 243 -262 304 -203 l 304 627 l 188 627 l 188 677 l 304 677 l 304 766 b 475 971 304 890 374 971 b 617 916 527 971 576 951 l 581 873 b 475 916 549 901 514 916 b 359 766 406 916 359 862 l 359 677 l 554 677 l 554 627 l 359 627 l 359 -60 b 98 -313 359 -233 271 -313 "},"£":{"ha":878,"x_min":0,"x_max":0,"o":"m 823 56 l 823 0 l 127 0 l 127 72 b 320 279 241 100 320 184 b 262 475 320 347 287 409 l 133 475 l 133 531 l 248 531 b 221 686 234 571 221 626 b 494 966 221 846 329 966 b 758 766 618 966 713 887 l 705 747 b 494 910 667 850 591 910 b 277 685 365 910 277 820 b 306 531 277 628 290 574 l 622 531 l 622 475 l 320 475 b 374 279 344 411 374 351 b 206 56 374 141 268 80 "},"₱":{"ha":959,"x_min":0,"x_max":0,"o":"m 859 679 l 787 679 b 471 427 781 517 661 427 l 286 427 l 286 0 l 220 0 l 220 679 l 125 679 l 125 711 l 220 711 l 220 958 l 471 958 b 787 711 655 958 777 867 l 859 711 m 286 711 l 721 711 b 471 895 711 827 623 895 l 286 895 m 471 490 b 722 679 630 490 716 557 l 286 679 l 286 490 l 471 490 "},"₳":{"ha":1082,"x_min":0,"x_max":0,"o":"m 244 225 l 135 225 l 135 283 l 267 283 l 321 437 l 135 437 l 135 496 l 345 496 l 511 958 l 571 958 l 737 496 l 947 496 l 947 437 l 761 437 l 815 283 l 947 283 l 947 225 l 838 225 l 918 0 l 846 0 l 767 225 l 316 225 l 237 0 l 163 0 m 671 496 l 542 869 l 412 496 m 746 283 l 692 437 l 391 437 l 337 283 "},"₴":{"ha":1012,"x_min":0,"x_max":0,"o":"m 877 599 l 877 551 l 129 551 l 129 599 l 633 599 b 713 732 681 631 713 671 b 520 907 713 833 631 907 b 309 783 424 907 357 868 l 253 818 b 518 968 313 922 401 968 b 780 730 665 968 780 872 b 724 599 780 673 758 631 m 129 427 l 877 427 l 877 379 l 342 379 b 278 250 304 348 278 309 b 513 52 278 133 376 52 b 766 252 646 52 741 125 l 831 237 b 509 -8 799 80 671 -8 b 211 243 340 -8 211 95 b 264 379 211 305 235 348 l 129 379 "},"₸":{"ha":1006,"x_min":0,"x_max":0,"o":"m 124 958 l 882 958 l 882 901 l 124 901 m 471 696 l 124 696 l 124 752 l 882 752 l 882 696 l 537 696 l 537 0 l 471 0 "},"₽":{"ha":939,"x_min":0,"x_max":0,"o":"m 250 225 l 126 225 l 126 279 l 250 279 l 250 431 l 126 431 l 126 490 l 250 490 l 250 958 l 501 958 b 818 691 694 958 818 859 b 501 431 818 522 696 431 l 317 431 l 317 279 l 534 279 l 534 225 l 317 225 l 317 0 l 250 0 m 501 490 b 752 691 666 490 752 562 b 501 895 752 819 663 895 l 317 895 l 317 490 "},"¥":{"ha":997,"x_min":0,"x_max":0,"o":"m 464 155 l 208 155 l 208 209 l 464 209 l 464 358 l 208 358 l 208 412 l 434 412 l 98 958 l 178 958 l 498 430 l 819 958 l 899 958 l 562 412 l 789 412 l 789 358 l 533 358 l 533 209 l 789 209 l 789 155 l 533 155 l 533 0 l 464 0 "},"+":{"ha":884,"x_min":0,"x_max":0,"o":"m 416 399 l 96 399 l 96 450 l 416 450 l 416 770 l 467 770 l 467 450 l 787 450 l 787 399 l 467 399 l 467 79 l 416 79 "},"−":{"ha":832,"x_min":0,"x_max":0,"o":"m 186 452 l 646 452 l 646 401 l 186 401 "},"×":{"ha":760,"x_min":0,"x_max":0,"o":"m 379 401 l 153 175 l 117 212 l 343 438 l 117 664 l 153 700 l 379 474 l 605 700 l 642 664 l 415 437 l 642 211 l 606 175 "},"÷":{"ha":669,"x_min":0,"x_max":0,"o":"m 296 743 l 366 743 l 366 604 l 296 604 m 98 452 l 562 452 l 562 401 l 98 401 m 296 235 l 366 235 l 366 96 l 296 96 "},"=":{"ha":909,"x_min":0,"x_max":0,"o":"m 193 610 l 715 610 l 715 554 l 193 554 m 193 357 l 715 357 l 715 301 l 193 301 "},"≠":{"ha":802,"x_min":0,"x_max":0,"o":"m 278 301 l 139 301 l 139 357 l 311 357 l 418 554 l 139 554 l 139 610 l 452 610 l 640 958 l 688 958 l 500 610 l 662 610 l 662 554 l 466 554 l 359 357 l 662 357 l 662 301 l 326 301 l 163 0 l 115 0 "},">":{"ha":866,"x_min":0,"x_max":0,"o":"m 105 94 l 677 420 l 105 746 l 130 790 l 779 420 l 130 50 "},"<":{"ha":866,"x_min":0,"x_max":0,"o":"m 87 420 l 736 790 l 761 746 l 189 420 l 761 94 l 736 50 "},"≥":{"ha":916,"x_min":0,"x_max":0,"o":"m 145 218 l 717 545 l 145 871 l 170 915 l 819 545 l 170 175 m 773 -51 l 113 -51 l 113 0 l 773 0 "},"≤":{"ha":916,"x_min":0,"x_max":0,"o":"m 96 545 l 745 915 l 770 871 l 199 545 l 770 218 l 745 175 m 802 0 l 802 -51 l 142 -51 l 142 0 "},"±":{"ha":925,"x_min":0,"x_max":0,"o":"m 438 454 l 111 454 l 111 505 l 438 505 l 438 831 l 490 831 l 490 505 l 816 505 l 816 454 l 490 454 l 490 127 l 438 127 m 111 0 l 806 0 l 806 -51 l 111 -51 "},"≈":{"ha":862,"x_min":0,"x_max":0,"o":"m 549 486 b 308 660 412 486 417 660 b 210 515 245 660 210 605 l 159 515 b 308 706 159 632 216 706 b 549 532 450 706 446 532 b 650 692 610 532 650 596 l 701 692 b 549 486 701 569 641 486 m 549 197 b 308 371 412 197 417 371 b 210 227 245 371 210 316 l 159 227 b 308 418 159 342 216 418 b 549 243 450 418 446 243 b 650 404 610 243 650 307 l 701 404 b 549 197 701 279 641 197 "},"~":{"ha":860,"x_min":0,"x_max":0,"o":"m 549 262 b 308 436 412 262 417 436 b 210 292 245 436 210 381 l 159 292 b 308 482 159 408 216 482 b 549 309 450 482 446 309 b 650 468 610 309 650 372 l 701 468 b 549 262 701 345 641 262 "},"¬":{"ha":911,"x_min":0,"x_max":0,"o":"m 656 482 l 115 482 l 115 541 l 718 541 l 718 197 l 656 197 "},"^":{"ha":772,"x_min":0,"x_max":0,"o":"m 385 985 l 675 318 l 606 318 l 385 856 l 167 318 l 97 318 "},"∞":{"ha":1415,"x_min":0,"x_max":0,"o":"m 395 242 b 139 494 247 242 139 352 b 395 745 139 635 247 745 b 703 540 514 745 621 658 b 1019 745 793 659 900 745 b 1274 494 1167 745 1274 635 b 1019 242 1274 352 1167 242 b 703 448 899 242 793 329 b 395 242 621 329 514 242 m 402 296 b 672 494 494 296 589 362 b 402 691 589 627 492 691 b 197 494 287 691 197 606 b 402 296 197 381 287 296 m 1012 296 b 1216 494 1127 296 1216 381 b 1012 691 1216 606 1127 691 b 732 494 909 691 813 608 b 1012 296 814 378 909 296 "},"∫":{"ha":713,"x_min":0,"x_max":0,"o":"m 79 -271 b 304 -64 240 -271 304 -212 l 304 766 b 492 971 304 884 386 971 b 634 916 541 971 591 952 l 599 873 b 492 916 564 901 527 916 b 359 764 418 916 359 855 l 359 -65 b 79 -326 359 -242 263 -326 "},"Ω":{"ha":1126,"x_min":0,"x_max":0,"o":"m 113 55 l 405 55 l 406 92 b 168 509 260 173 168 335 b 267 775 168 606 205 708 b 563 911 340 857 456 911 b 860 775 670 911 787 858 b 958 507 920 708 958 604 b 724 90 958 318 867 155 l 724 54 l 1012 54 l 1012 0 l 654 0 l 654 106 b 901 507 804 146 901 302 b 820 736 901 591 869 682 b 563 855 755 809 654 855 b 307 736 471 855 371 808 b 225 507 257 680 225 591 b 471 104 225 316 321 161 l 471 0 l 113 0 "},"∆":{"ha":947,"x_min":0,"x_max":0,"o":"m 474 984 l 858 0 l 90 0 m 777 56 l 474 846 l 170 56 "},"∏":{"ha":916,"x_min":0,"x_max":0,"o":"m 204 903 l 126 903 l 126 958 l 789 958 l 789 903 l 713 903 l 713 0 l 657 0 l 657 903 l 260 903 l 260 0 l 204 0 "},"∑":{"ha":905,"x_min":0,"x_max":0,"o":"m 803 897 l 189 897 l 579 479 l 189 62 l 803 62 l 803 0 l 102 0 l 102 56 l 492 479 l 102 903 l 102 958 l 803 958 "},"√":{"ha":882,"x_min":0,"x_max":0,"o":"m 186 382 l 87 382 l 87 438 l 225 438 l 368 77 l 734 958 l 794 958 l 366 -66 "},"µ":{"ha":873,"x_min":0,"x_max":0,"o":"m 194 677 l 258 677 l 258 262 b 441 51 258 127 321 51 b 642 267 562 51 642 131 l 642 677 l 705 677 l 705 0 l 642 0 l 642 127 b 425 -9 604 39 522 -9 b 248 95 338 -9 277 27 l 248 -241 l 194 -241 "},"∂":{"ha":937,"x_min":0,"x_max":0,"o":"m 409 -7 b 120 294 233 -7 120 116 b 495 695 120 532 283 695 b 731 473 640 695 707 579 b 730 570 734 507 733 539 b 476 917 722 804 634 917 b 252 773 377 917 290 873 l 202 789 b 481 966 246 902 347 966 b 799 503 698 966 799 795 b 409 -7 799 235 676 -7 m 412 49 b 723 336 595 49 695 184 b 503 641 737 460 682 641 b 180 295 304 641 180 491 b 412 49 180 142 278 49 "},"%":{"ha":1061,"x_min":0,"x_max":0,"o":"m 283 539 b 109 753 161 539 109 653 b 279 968 109 854 161 968 b 454 753 382 968 454 878 b 283 539 454 629 384 539 m 768 958 l 817 958 l 290 0 l 242 0 m 283 586 b 408 753 357 586 408 654 b 279 922 408 841 366 922 b 155 753 189 922 155 832 b 283 586 155 675 190 586 m 781 -9 b 606 205 659 -9 606 104 b 777 419 606 306 659 419 b 952 204 880 419 952 329 b 781 -9 952 80 882 -9 m 781 37 b 906 204 854 37 906 106 b 777 373 906 292 863 373 b 652 205 687 373 652 283 b 781 37 652 126 688 37 "},"‰":{"ha":1478,"x_min":0,"x_max":0,"o":"m 283 539 b 109 753 161 539 109 653 b 279 968 109 854 161 968 b 454 753 382 968 454 878 b 283 539 454 629 384 539 m 768 958 l 817 958 l 290 0 l 242 0 m 283 586 b 408 753 357 586 408 654 b 279 922 408 841 366 922 b 155 753 189 922 155 832 b 283 586 155 675 190 586 m 781 -9 b 606 205 659 -9 606 104 b 777 419 606 306 659 419 b 952 204 880 419 952 329 b 781 -9 952 80 882 -9 m 1199 -9 b 1023 205 1076 -9 1023 104 b 1195 419 1023 306 1076 419 b 1370 204 1298 419 1370 329 b 1199 -9 1370 80 1299 -9 m 781 37 b 906 204 854 37 906 106 b 777 373 906 292 863 373 b 652 205 687 373 652 283 b 781 37 652 126 688 37 m 1199 37 b 1324 204 1272 37 1324 106 b 1195 373 1324 292 1280 373 b 1070 205 1105 373 1070 283 b 1199 37 1070 126 1105 37 "},"‱":{"ha":1896,"x_min":0,"x_max":0,"o":"m 283 539 b 109 753 161 539 109 653 b 279 968 109 854 161 968 b 454 753 382 968 454 878 b 283 539 454 629 384 539 m 768 958 l 817 958 l 290 0 l 242 0 m 283 586 b 408 753 357 586 408 654 b 279 922 408 841 366 922 b 155 753 189 922 155 832 b 283 586 155 675 190 586 m 781 -9 b 606 205 659 -9 606 104 b 777 419 606 306 659 419 b 952 204 880 419 952 329 b 781 -9 952 80 882 -9 m 1199 -9 b 1023 205 1076 -9 1023 104 b 1195 419 1023 306 1076 419 b 1370 204 1298 419 1370 329 b 1199 -9 1370 80 1299 -9 m 1617 -9 b 1441 205 1494 -9 1441 104 b 1613 419 1441 306 1493 419 b 1788 204 1715 419 1788 329 b 1617 -9 1788 80 1716 -9 m 781 37 b 906 204 854 37 906 106 b 777 373 906 292 863 373 b 652 205 687 373 652 283 b 781 37 652 126 688 37 m 1199 37 b 1324 204 1272 37 1324 106 b 1195 373 1324 292 1280 373 b 1070 205 1105 373 1070 283 b 1199 37 1070 126 1105 37 m 1617 37 b 1742 204 1690 37 1742 106 b 1613 373 1742 292 1698 373 b 1487 205 1522 373 1487 283 b 1617 37 1487 126 1522 37 "},"→":{"ha":1560,"x_min":0,"x_max":0,"o":"m 805 117 l 1323 408 l 96 406 l 96 457 l 1323 459 l 805 747 l 827 791 l 1473 433 l 827 73 "},"←":{"ha":1560,"x_min":0,"x_max":0,"o":"m 87 433 l 733 791 l 755 747 l 237 459 l 1465 457 l 1465 406 l 237 408 l 755 117 l 733 73 "},"◊":{"ha":801,"x_min":0,"x_max":0,"o":"m 97 479 l 350 958 l 451 958 l 704 479 l 451 0 l 350 0 m 412 38 l 638 479 l 412 920 l 389 920 l 163 479 l 389 38 "},"":{"ha":1250,"x_min":0,"x_max":0,"o":"m 625 -41 b 100 484 335 -41 100 193 b 625 1008 100 774 335 1008 b 1150 484 916 1008 1150 774 b 625 -41 1150 193 916 -41 m 625 7 b 1101 484 889 7 1101 220 b 625 960 1101 747 889 960 b 149 484 361 960 149 747 b 625 7 149 220 361 7 m 351 278 b 328 301 339 278 328 288 l 328 665 b 351 690 328 679 339 690 b 376 665 366 690 376 679 l 376 301 b 351 278 376 288 366 278 m 625 278 b 602 301 611 278 602 288 l 602 665 b 625 690 602 679 611 690 b 648 665 639 690 648 679 l 648 301 b 625 278 648 288 639 278 m 897 278 b 882 285 892 278 886 279 l 699 467 b 693 484 694 472 693 478 b 699 500 693 490 694 496 l 883 682 b 897 690 886 688 892 690 b 922 665 909 690 922 677 b 916 648 922 660 921 654 l 750 484 l 916 318 b 922 301 921 313 922 307 b 897 278 922 289 909 278 m 443 460 b 419 484 429 460 419 469 b 443 507 419 497 429 507 l 533 507 b 558 484 547 507 558 497 b 533 460 558 469 547 460 l 443 460 "},"@":{"ha":1455,"x_min":0,"x_max":0,"o":"m 722 -241 b 121 350 394 -241 121 -19 b 735 975 121 708 374 975 b 1337 378 1093 975 1337 715 b 1027 -43 1337 170 1242 -43 b 885 126 931 -43 881 18 b 891 218 885 153 886 183 b 627 39 837 119 747 39 b 420 278 492 39 420 136 b 759 709 420 460 537 709 b 947 537 869 709 935 646 l 975 674 l 1029 672 b 929 163 1004 537 941 294 b 1025 11 919 75 939 11 b 1284 378 1210 11 1284 198 b 736 924 1284 688 1063 924 b 173 351 404 924 173 680 b 723 -187 173 9 422 -187 b 911 -155 791 -187 850 -176 l 930 -205 b 722 -241 861 -229 798 -241 m 631 93 b 923 474 825 93 923 313 b 765 656 923 591 871 656 b 471 277 570 656 471 438 b 631 93 471 158 526 93 "},"&":{"ha":967,"x_min":0,"x_max":0,"o":"m 819 -42 l 688 111 b 391 -9 613 34 511 -9 b 106 217 222 -9 106 75 b 349 505 106 368 225 442 b 214 751 310 551 214 649 b 456 966 214 880 323 966 b 683 751 583 966 683 873 b 444 490 683 618 566 551 l 688 205 b 768 464 733 273 761 362 l 831 458 b 728 157 821 338 785 236 l 865 -2 m 277 750 b 403 531 277 667 369 572 b 623 751 518 588 623 643 b 457 914 623 842 555 914 b 277 750 353 914 277 848 m 390 46 b 650 156 497 46 586 86 l 390 462 b 168 216 274 403 168 339 b 390 46 168 110 254 46 "},"¶":{"ha":849,"x_min":0,"x_max":0,"o":"m 408 422 b 101 690 250 422 101 521 b 408 958 101 860 250 958 l 456 958 l 456 -167 l 408 -167 m 606 958 l 654 958 l 654 -167 l 606 -167 "},"§":{"ha":827,"x_min":0,"x_max":0,"o":"m 418 -9 b 130 174 285 -9 182 47 l 190 194 b 422 45 239 89 309 45 b 638 177 547 45 638 98 b 156 534 638 361 156 281 b 216 669 156 588 178 633 b 157 782 177 698 157 734 b 402 968 157 895 267 968 b 652 852 519 968 601 926 l 600 821 b 400 916 558 885 497 916 b 212 781 288 916 212 856 b 694 425 212 600 694 681 b 635 291 694 374 675 328 b 694 177 673 262 694 225 b 418 -9 694 60 568 -9 m 581 316 b 638 424 618 342 638 380 b 269 646 638 571 402 578 b 212 536 230 618 212 577 b 581 316 212 390 450 384 "},"©":{"ha":1179,"x_min":0,"x_max":0,"o":"m 590 -11 b 100 479 319 -11 100 208 b 590 970 100 750 319 970 b 1079 479 860 970 1079 750 b 590 -11 1079 208 860 -11 m 590 33 b 1036 479 836 33 1036 233 b 590 926 1036 725 836 926 b 144 479 343 926 144 726 b 590 33 144 233 343 33 m 605 152 b 327 478 432 152 327 292 b 604 806 327 645 418 806 b 852 637 715 806 806 746 l 800 616 b 604 756 764 703 692 756 b 382 478 454 756 382 623 b 604 202 382 332 454 202 b 795 341 696 202 766 254 l 846 321 b 605 152 808 214 718 152 "},"®":{"ha":1179,"x_min":0,"x_max":0,"o":"m 590 -11 b 100 479 319 -11 100 208 b 590 970 100 750 319 970 b 1079 479 860 970 1079 750 b 590 -11 1079 208 860 -11 m 590 33 b 1036 479 836 33 1036 233 b 590 926 1036 725 836 926 b 144 479 343 926 144 726 b 590 33 144 233 343 33 m 441 780 l 601 780 b 799 614 723 780 799 717 b 671 460 799 534 753 479 l 836 178 l 784 178 l 625 454 b 586 453 613 454 600 453 l 487 453 l 487 178 l 441 178 m 604 492 b 753 614 701 492 753 536 b 602 737 753 693 698 737 l 487 737 l 487 492 "},"™":{"ha":827,"x_min":0,"x_max":0,"o":"m 180 918 l 71 918 l 71 958 l 331 958 l 331 918 l 223 918 l 223 595 l 180 595 m 414 958 l 484 958 l 586 691 l 688 958 l 756 958 l 756 595 l 713 595 l 713 909 l 600 627 l 572 627 l 457 914 l 457 595 l 414 595 "},"°":{"ha":679,"x_min":0,"x_max":0,"o":"m 340 580 b 146 774 233 580 146 667 b 340 968 146 880 233 968 b 533 774 446 968 533 880 b 340 580 533 667 446 580 m 340 626 b 487 774 421 626 487 692 b 340 922 487 856 421 922 b 192 774 258 922 192 856 b 340 626 192 692 258 626 "},"|":{"ha":441,"x_min":0,"x_max":0,"o":"m 195 1040 l 245 1040 l 245 -347 l 195 -347 "},"¦":{"ha":446,"x_min":0,"x_max":0,"o":"m 195 1000 l 250 1000 l 250 496 l 195 496 m 195 285 l 250 285 l 250 -208 l 195 -208 "},"†":{"ha":585,"x_min":0,"x_max":0,"o":"m 263 619 l 87 619 l 87 678 l 263 678 l 263 958 l 322 958 l 322 678 l 497 678 l 497 619 l 322 619 l 322 -139 l 263 -139 "},"‡":{"ha":627,"x_min":0,"x_max":0,"o":"m 284 140 l 109 140 l 109 199 l 284 199 l 284 619 l 109 619 l 109 678 l 284 678 l 284 958 l 344 958 l 344 678 l 519 678 l 519 619 l 344 619 l 344 199 l 519 199 l 519 140 l 344 140 l 344 -139 l 284 -139 "},"№":{"ha":1607,"x_min":0,"x_max":0,"o":"m 737 958 l 802 958 l 802 0 l 727 0 l 226 857 l 226 0 l 161 0 l 161 958 l 235 958 l 737 102 m 1234 210 b 962 507 1074 210 962 340 b 1234 802 962 672 1074 802 b 1508 507 1392 802 1508 672 b 1234 210 1508 340 1392 210 m 1234 754 b 1016 507 1102 754 1016 646 b 1234 257 1016 367 1102 257 b 1452 507 1365 257 1452 368 b 1234 754 1452 645 1365 754 m 979 51 l 1468 51 l 1468 0 l 979 0 "},"˵":{"ha":750,"x_min":0,"x_max":0,"o":"m 119 677 l 189 677 l 340 478 l 288 478 m 401 677 l 472 677 l 628 478 l 576 478 "},"˶":{"ha":750,"x_min":0,"x_max":0,"o":"m 122 478 l 278 677 l 349 677 l 174 478 m 410 478 l 561 677 l 631 677 l 463 478 "},"ː":{"ha":397,"x_min":0,"x_max":0,"o":"m 51 677 l 335 699 l 210 419 m 187 259 l 347 0 l 62 -21 "},"ˑ":{"ha":411,"x_min":0,"x_max":0,"o":"m 58 433 l 342 454 l 217 174 "},"̈":{"ha":0,"x_min":0,"x_max":0,"o":"m -420 958 l -365 958 l -365 824 l -420 824 m -181 958 l -125 958 l -125 824 l -181 824 "},"̇":{"ha":0,"x_min":0,"x_max":0,"o":"m -193 958 l -125 958 l -125 824 l -193 824 "},"̀":{"ha":0,"x_min":0,"x_max":0,"o":"m -273 958 l -203 958 l -60 765 l -113 765 "},"́":{"ha":0,"x_min":0,"x_max":0,"o":"m -127 958 l -57 958 l -222 765 l -273 765 "},"̋":{"ha":0,"x_min":0,"x_max":0,"o":"m -347 958 l -287 958 l -442 756 l -494 756 m -126 958 l -56 958 l -221 756 l -273 756 "},"̂":{"ha":0,"x_min":0,"x_max":0,"o":"m -249 966 l -47 758 l -105 758 l -249 907 l -393 758 l -450 758 "},"̌":{"ha":0,"x_min":0,"x_max":0,"o":"m -452 958 l -394 958 l -251 812 l -106 958 l -50 958 l -251 755 "},"̆":{"ha":0,"x_min":0,"x_max":0,"o":"m -295 780 b -500 958 -431 780 -500 843 l -452 958 b -295 821 -452 868 -394 821 b -140 958 -195 821 -140 869 l -92 958 b -295 780 -92 841 -163 780 "},"̊":{"ha":0,"x_min":0,"x_max":0,"o":"m -218 748 b -341 871 -287 748 -341 804 b -218 995 -341 940 -286 995 b -94 871 -151 995 -94 940 b -218 748 -94 803 -149 748 m -218 787 b -133 872 -170 787 -133 825 b -218 956 -133 919 -169 956 b -302 872 -265 956 -302 919 b -218 787 -302 823 -265 787 "},"̃":{"ha":0,"x_min":0,"x_max":0,"o":"m -216 793 b -409 922 -331 793 -326 922 b -487 807 -457 922 -487 879 l -528 807 b -407 964 -528 906 -481 965 b -216 836 -299 965 -302 836 b -143 958 -174 836 -143 884 l -101 958 b -216 793 -101 857 -147 793 "},"̄":{"ha":0,"x_min":0,"x_max":0,"o":"m -490 885 l -121 885 l -121 844 l -490 844 "},"̏":{"ha":0,"x_min":0,"x_max":0,"o":"m -332 756 l -497 958 l -427 958 l -281 756 m -111 756 l -267 958 l -206 958 l -60 756 "},"̒":{"ha":0,"x_min":0,"x_max":0,"o":"m -207 764 l -276 764 l -117 964 l -73 964 "},"̛":{"ha":0,"x_min":0,"x_max":0,"o":"m -280 730 b -153 884 -188 730 -153 789 l -153 958 l -102 958 l -102 888 b -280 685 -102 760 -156 685 "},"̦":{"ha":0,"x_min":0,"x_max":0,"o":"m -126 -78 l -57 -78 l -216 -301 l -260 -301 "},"̧":{"ha":0,"x_min":0,"x_max":0,"o":"m -212 -349 b -342 -261 -268 -349 -321 -313 l -302 -244 b -210 -308 -288 -282 -252 -308 b -117 -224 -152 -308 -117 -277 b -243 -130 -117 -172 -162 -138 b -307 -128 -262 -129 -282 -128 l -234 -1 l -191 -1 l -248 -98 b -203 -102 -232 -98 -216 -100 b -76 -222 -120 -116 -76 -158 b -212 -349 -76 -298 -129 -349 "},"̨":{"ha":0,"x_min":0,"x_max":0,"o":"m -205 -310 b -342 -185 -290 -310 -342 -263 b -170 3 -342 -87 -248 -15 l -117 0 b -300 -178 -211 -26 -300 -92 b -207 -267 -300 -239 -265 -267 b -96 -206 -159 -267 -125 -248 l -61 -231 b -205 -310 -96 -283 -141 -310 "},"̷":{"ha":0,"x_min":0,"x_max":0,"o":"m -536 292 l -121 764 l -121 689 l -536 216 "},"´":{"ha":332,"x_min":0,"x_max":0,"o":"m 205 958 l 275 958 l 111 765 l 59 765 "},"˘":{"ha":591,"x_min":0,"x_max":0,"o":"m 300 780 b 95 958 164 780 95 843 l 143 958 b 300 821 143 868 201 821 b 455 958 399 821 455 869 l 503 958 b 300 780 503 841 432 780 "},"ˇ":{"ha":501,"x_min":0,"x_max":0,"o":"m 53 958 l 111 958 l 254 812 l 398 958 l 455 958 l 254 755 "},"¸":{"ha":412,"x_min":0,"x_max":0,"o":"m 201 -349 b 71 -261 144 -349 91 -313 l 111 -244 b 202 -308 124 -282 161 -308 b 295 -224 260 -308 295 -277 b 169 -130 295 -172 250 -138 b 106 -128 150 -129 130 -128 l 178 -1 l 221 -1 l 164 -98 b 210 -102 180 -98 196 -100 b 336 -222 292 -116 336 -158 b 201 -349 336 -298 283 -349 "},"ˆ":{"ha":498,"x_min":0,"x_max":0,"o":"m 249 966 l 450 758 l 393 758 l 249 907 l 105 758 l 47 758 "},"¨":{"ha":536,"x_min":0,"x_max":0,"o":"m 125 958 l 181 958 l 181 824 l 125 824 m 365 958 l 420 958 l 420 824 l 365 824 "},"˙":{"ha":318,"x_min":0,"x_max":0,"o":"m 132 958 l 199 958 l 199 824 l 132 824 "},"`":{"ha":332,"x_min":0,"x_max":0,"o":"m 60 958 l 130 958 l 273 765 l 220 765 "},"˝":{"ha":544,"x_min":0,"x_max":0,"o":"m 211 958 l 271 958 l 116 756 l 64 756 m 432 958 l 502 958 l 337 756 l 286 756 "},"¯":{"ha":612,"x_min":0,"x_max":0,"o":"m 125 885 l 494 885 l 494 844 l 125 844 "},"˛":{"ha":428,"x_min":0,"x_max":0,"o":"m 222 -310 b 85 -185 138 -310 85 -263 b 258 3 85 -87 180 -15 l 311 0 b 127 -178 217 -26 127 -92 b 221 -267 127 -239 163 -267 b 332 -206 269 -267 302 -248 l 367 -231 b 222 -310 332 -283 287 -310 "},"˚":{"ha":435,"x_min":0,"x_max":0,"o":"m 221 748 b 98 871 152 748 98 804 b 221 995 98 940 153 995 b 345 871 288 995 345 940 b 221 748 345 803 290 748 m 221 787 b 306 872 269 787 306 825 b 221 956 306 919 270 956 b 137 872 174 956 137 919 b 221 787 137 823 174 787 "},"˜":{"ha":627,"x_min":0,"x_max":0,"o":"m 419 793 b 226 922 304 793 309 922 b 148 807 178 922 148 879 l 107 807 b 228 964 107 906 153 965 b 419 836 336 965 333 836 b 492 958 461 836 492 884 l 534 958 b 419 793 534 857 488 793 "},"΄":{"ha":301,"x_min":0,"x_max":0,"o":"m 157 958 l 212 958 l 134 765 l 97 765 "},"΅":{"ha":450,"x_min":0,"x_max":0,"o":"m 249 1239 l 304 1239 l 226 1046 l 189 1046 m 66 958 l 122 958 l 122 824 l 66 824 m 306 958 l 361 958 l 361 824 l 306 824 "},"҃":{"ha":0,"x_min":0,"x_max":0,"o":"m -656 1227 l -163 1227 l -163 1331 l -98 1331 l -98 1166 l -592 1166 l -592 1053 l -656 1053 "}}}
